<svg width="34" height="34" fill="none" xmlns="http://www.w3.org/2000/svg"><circle cx="17" cy="17" r="16" stroke="#000" stroke-width="2" opacity=".3"/><circle cx="17" cy="17" r="15" fill="#FF7C7C"/><g clip-path="url(#clip0)"><path fill-rule="evenodd" clip-rule="evenodd" d="M16.998 27.998C14.256 26.563 6.975 22.288 7 12.423a.35.35 0 01.07-.05c.227-.148.945-.616 1.295-1.405.407-.919.284-2.297.284-2.297s1.78-1.783 5.501-2.46c0 0 1.234-.222 2.85-.21a17.15 17.15 0 012.85.21c3.72.677 5.501 2.46 5.501 2.46s-.123 1.378.284 2.297c.35.79 1.068 1.257 1.295 1.405.044.029.07.045.07.05.025 9.865-7.256 14.14-9.998 15.575V28L17 27.999l-.002.001v-.002zm0-1.447c-2.328-1.245-8.511-4.958-8.49-13.526 0-.004.022-.019.06-.044.193-.128.802-.534 1.099-1.22.346-.797.241-1.995.241-1.995s1.513-1.548 4.672-2.135c0 0 1.048-.194 2.42-.184a14.18 14.18 0 012.42.184c3.16.587 4.672 2.135 4.672 2.135s-.105 1.197.241 1.995c.297.686.906 1.092 1.1 1.22a.28.28 0 01.059.044c.021 8.568-6.162 12.28-8.49 13.526v.002h-.004v-.002zM18.414 23h1.414v-2.947l3.536-.737v-4.482C23.364 11.61 20.514 9 17 9c-3.515 0-6.364 2.611-6.364 5.834v4.482l3.536.737V23h1.414v-1.474h.707V23h1.414v-1.474h.707V23zm-6.364-5.895v-2.21l3.536 2.21H12.05zm6.364 0l3.535-2.21v2.21h-3.535z" fill="#fff"/></g><defs><clipPath id="clip0"><path fill="#fff" transform="translate(6 6)" d="M0 0h22v22H0z"/></clipPath></defs></svg>