<svg width="34" height="34" fill="none" xmlns="http://www.w3.org/2000/svg"><circle cx="17" cy="17" r="16" stroke="#000" stroke-width="2" opacity=".3"/><circle cx="17" cy="17" r="15" fill="#50B6FF"/><g clip-path="url(#clip0)"><path fill-rule="evenodd" clip-rule="evenodd" d="M28 10h-4V6.002L28 10zM10 28v-4H6l4.002 4zm0-18V6.002L6 10h4.002zm18 14h-4v4l4-4zm-9.586 0h1.414v-2.947l3.536-.737v-4.482c0-3.222-2.85-5.833-6.364-5.833-3.515 0-6.364 2.61-6.364 5.833v4.482l3.536.737V24h1.414v-1.473h.707V24h1.414v-1.473h.707V24zm-6.364-5.894v-2.21l3.536 2.21H12.05zm6.364 0l3.535-2.21v2.21h-3.535z" fill="#fff"/></g><defs><clipPath id="clip0"><path fill="#fff" transform="translate(6 6)" d="M0 0h22v22H0z"/></clipPath></defs></svg>