<svg width="56" height="56" fill="none" xmlns="http://www.w3.org/2000/svg"><path fill-rule="evenodd" clip-rule="evenodd" d="M42.307 35.424l1.068-2.592s5.816-2.29 5.814-2.604v-4.652c.002-.321-5.824-2.436-5.824-2.436l-1.07-2.596s2.49-5.735 2.268-5.957l-3.293-3.285c-.23-.226-5.848 2.392-5.848 2.392l-2.592-1.07s-2.286-5.813-2.6-5.813h-4.65c-.324 0-2.442 5.826-2.442 5.826L20.55 13.71s-5.736-2.489-5.956-2.267l-3.29 3.291c-.229.224 2.39 5.846 2.39 5.846l-1.07 2.593s-5.813 2.286-5.813 2.595v4.655c0 .325 5.827 2.445 5.827 2.445l1.07 2.589s-2.488 5.73-2.27 5.952l3.293 3.293c.224.223 5.845-2.395 5.845-2.395l2.593 1.073s2.284 5.81 2.6 5.81h4.652c.323 0 2.442-5.827 2.442-5.827l2.6-1.073s5.724 2.49 5.945 2.273l3.294-3.292c.23-.228-2.395-5.846-2.395-5.846zm-15.294 1.254l-7.075-4.38v-7.066l7.075 4.38v7.066zm.808-8.518l7.115-4.404-7.115-4.404-7.115 4.404 7.115 4.404zm.808 1.452l7.076-4.38v7.066l-7.076 4.38v-7.066z" fill="#fff"/></svg>