<svg width="85" height="85" viewBox="0 0 72 72" fill="none" xmlns="http://www.w3.org/2000/svg"><path d="M59.29 47.907a2.233 2.233 0 11-4.465 0 2.233 2.233 0 014.465 0zm-2.232-20.093a2.233 2.233 0 100-4.465 2.233 2.233 0 000 4.465zm-23.07 26.658v1.498c-9.313-1.03-16.708-8.424-17.738-17.737h1.499c1.015 8.49 7.749 15.224 16.24 16.24zm0-9.056a9.69 9.69 0 01-7.183-7.183h1.538a8.203 8.203 0 005.645 5.645v1.538z" fill="#fff"/><path d="M25.802 48.651a2.233 2.233 0 100-4.465 2.233 2.233 0 000 4.465zm-.744-18.604a2.233 2.233 0 11-4.465 0 2.233 2.233 0 014.465 0z" fill="#fff"/><path fill-rule="evenodd" clip-rule="evenodd" d="M68.22 36c0 17.673-14.326 32-32 32-17.672 0-32-14.327-32-32 0-17.673 14.328-32 32-32 17.674 0 32 14.327 32 32zM36.966 63.525c14.616-.388 26.393-12.165 26.78-26.78H56.3c-.382 10.505-8.83 18.952-19.335 19.335v7.445zm26.78-28.27H56.3c-.382-10.505-8.83-18.952-19.335-19.335V8.476c14.616.388 26.393 12.165 26.78 26.78zm-8.934 0c-.381-9.682-8.163-17.464-17.846-17.845v8.944a9.676 9.676 0 018.902 8.902h8.944zm-10.438 0a8.188 8.188 0 00-7.408-7.408v6.118a2.223 2.223 0 011.359 1.29h6.05zm-7.408 2.94a2.23 2.23 0 001.414-1.45h5.994a8.188 8.188 0 01-7.408 7.408v-5.959zm-2.849-1.45a2.235 2.235 0 001.36 1.43v25.35c-14.615-.388-26.393-12.165-26.78-26.78h25.42zm1.36-3.234v-5.664a8.154 8.154 0 00-1.758.356l-.831-1.288a9.624 9.624 0 012.59-.561V17.41c-2.684.105-5.222.78-7.496 1.905l-.812-1.258a19.987 19.987 0 018.308-2.136V8.475A27.39 27.39 0 0021.9 12.478L35.477 33.51zM20.652 13.287l13.83 21.427a2.21 2.21 0 00-.308.542h-6.105a8.153 8.153 0 012.002-4.658l-.834-1.292a9.64 9.64 0 00-2.662 5.95h-8.943a18.566 18.566 0 016.693-13.56l-.813-1.26c-4.328 3.539-7.152 8.847-7.37 14.82H8.696c.242-9.122 4.92-17.137 11.955-21.97zm16.314 32.36a9.676 9.676 0 008.902-8.903h8.944c-.381 9.683-8.163 17.465-17.846 17.846v-8.944z" fill="#fff"/></svg>