<svg width="85" height="85" viewBox="0 0 72 72" fill="none" xmlns="http://www.w3.org/2000/svg"><path fill-rule="evenodd" clip-rule="evenodd" d="M49.036 36.932l.583-10.64 6.824-.933V14.535a17.888 17.888 0 014.202 5.841 18.073 18.073 0 011.576 7.047v7.142l-13.185 2.367zm-5.112-13.35l3.852 2.96v11.483l-3.855 4.328-2.905-4.312-4.795 4.296-4.796-4.296-2.905 4.315-3.855-4.328v-11.48l3.852-2.961-10.762-2.043-.53-8.122a17.461 17.461 0 017.09-3.966v2.46c0 .905 1.28 1.64 2.858 1.64h17.136c1.578 0 2.857-.734 2.857-1.64v-2.46a21.332 21.332 0 018.05 3.966l-.53 8.122-10.762 2.038zm-7.722 18.771l.019-.016.019.017h-.038zm8.107-29.89H27.17a.832.832 0 01-.578-.094.848.848 0 01-.378-.452V8.64c0-.905 1.28-1.639 2.857-1.639h13.336c1.578 0 2.856.734 2.856 1.639v3.277a.848.848 0 01-.376.452.831.831 0 01-.577.095zm0-3.824c0-.604-.849-1.092-1.904-1.092H29.072c-1.051 0-1.904.488-1.904 1.092v3.277l.955-3.277a.848.848 0 01.377-.453c.175-.1.38-.133.578-.094h13.327a.832.832 0 01.577.094c.176.1.31.261.378.453l.955 3.277V8.639h-.007zM23.403 36.932l-13.182-2.37V27.42a18.075 18.075 0 011.576-7.047A17.886 17.886 0 0116 14.531v10.827l6.825.932.58 10.642zM16.96 53.774l-2.886-2.806v-5.613l2.889 2.807v5.613l-.003-.001zm5.617 2.43l1.605 1.73v3.464L21.774 58.8l-.962-13.855v-1.726l-3.853-1.732V38.89l4.817 1.728.8 15.585zm8.828 2.596V65H26.59v-6.2l1.605-2.597 3.208 2.597zm7.223 0V65h-4.813v-6.2l2.407-1.731 2.406 1.731zm7.222 0V65h-4.813v-6.2l3.21-2.597L45.85 58.8zm4.816-18.181l4.815-1.732v2.597l-3.852 1.732v1.731l-.963 13.856-2.408 2.597v-3.465l1.605-1.732.803-15.585zm7.703 10.346l-2.888 2.807v-5.61l2.889-2.807v5.613-.003z" fill="#fff"/></svg>