<svg width="85" height="85" viewBox="0 0 68 68" fill="none" xmlns="http://www.w3.org/2000/svg"><path d="M55.295 37.916c9.94-11.79-2.98-25.413-5.57-27.2 1.027 2.126 1.222 5.725-.853 7.472C45.359 5.583 36.674 3 36.674 3c1.027 6.5-3.724 13.609-8.305 18.92-.16-2.592-.332-4.38-1.772-6.861-.178 2.585-1.403 4.907-2.643 7.256-1.02 1.931-2.048 3.88-2.513 6.009-.47 2.155-.505 4.115.012 5.956L36.77 21.73l13.186 1.261 5.34 5.16v9.765z" fill="#fff"/><path fill-rule="evenodd" clip-rule="evenodd" d="M43.12 40.202c3.335.385 6.825-1.826 7.261-5.508.436-3.681-2.442-6.63-5.776-7.015-3.334-.385-6.824 1.826-7.26 5.508-.437 3.681 2.441 6.629 5.776 7.015zm5.632-5.696c-.328 2.766-2.783 4.755-5.483 4.443-2.7-.312-4.622-2.808-4.295-5.574.328-2.766 2.783-4.756 5.483-4.444 2.7.313 4.622 2.808 4.294 5.575z" fill="#fff"/><path fill-rule="evenodd" clip-rule="evenodd" d="M37.554 23.667l-4.865 3.875v18.083l8.919 2.583 1.621 3.23h2.432l.811-3.23 7.297-.645v-18.73l-4.054-3.875-12.161-1.291zm5.418 17.787c4.5.52 8.547-2.422 9.038-6.572.492-4.149-2.757-7.935-7.257-8.455-4.5-.52-8.546 2.422-9.038 6.571-.492 4.15 2.758 7.935 7.257 8.456z" fill="#fff"/><path d="M30.257 46.917L13.23 55.958v-1.937l8.107-5.813 6.487-16.791 2.432-1.938v17.438z" fill="#fff"/><path d="M13.23 52.73v-9.688l10.956-8.727-4.47 12.602-6.485 5.812zm34.864-1.938l5.675-.97v3.553l-4.054 3.875h-10.54l-6.486-3.875-19.458 6.458v-2.275l19.458-8.704 7.297 1.938 1.622 2.583h4.864l1.622-2.583z" fill="#fff"/><path d="M14.852 60.48l1.622.645h8.107l21.544-3.321H35.932l-3.243-1.697-17.837 4.372z" fill="#fff"/><path d="M10.615 41.75l5.231-3.875 3.923-3.23L15.846 34 8 40.458v21.959L13.23 65h13.078l1.307-2.583H13.231l-2.616-1.292V41.75z" fill="#fff"/></svg>