<svg width="85" height="85" viewBox="0 0 72 72" fill="none" xmlns="http://www.w3.org/2000/svg"><path fill-rule="evenodd" clip-rule="evenodd" d="M64.554 20.563c1.57 0 3.02.444 4.194 1.196.037-.265.056-.536.056-.81 0-3.405-2.918-6.164-6.517-6.164h-.064l-.065.001a6.85 6.85 0 00-.419.02c-1.335-3.601-4.962-6.184-9.227-6.184-2.19 0-4.213.682-5.843 1.833C44.905 6.655 40.89 4 36.22 4s-8.685 2.655-10.448 6.455a10.104 10.104 0 00-5.844-1.833c-4.265 0-7.891 2.583-9.227 6.185a6.987 6.987 0 00-.404-.02l-.066-.001h-.078c-3.599 0-6.517 2.758-6.517 6.162 0 .275.02.546.056.811 1.174-.752 2.625-1.196 4.194-1.196.201 0 .4.007.596.021 1.452-3.601 5.394-6.184 10.03-6.184h.132c-2.052.613-3.719 2.147-4.539 4.133-1.948 1.025-3.487 2.618-4.342 4.529a6.28 6.28 0 00-1.877-.284c-3.13 0-5.666 2.263-5.666 5.055s2.537 5.056 5.666 5.056a6.135 6.135 0 003.141-.847c1.86 2.267 4.837 3.736 8.193 3.736 3.733 0 6.998-1.818 8.776-4.53 2.137 1.851 5.034 2.989 8.224 2.989 2.666 0 5.128-.795 7.112-2.137a7.28 7.28 0 00.795 2.727 9.885 9.885 0 01-.197-.29c-1.576 1.378-3.593 2.338-5.837 2.685h-3.746c-2.245-.347-4.261-1.307-5.837-2.685-1.667 2.566-4.728 4.286-8.228 4.286-2.577 0-4.916-.932-6.636-2.448l-2.311-.472c1.366 3.304 4.857 5.653 8.947 5.653 3.243 0 6.109-1.476 7.838-3.734a37.1 37.1 0 011.475 2.485 4.334 4.334 0 00-.459 1.97c0 1.995 1.269 3.612 2.834 3.612.127 0 .252-.01.374-.031.794.37 2.054.753 3.876.753 2.043 0 3.379-.48 4.144-.887.167-.447.34-.887.52-1.318 1.368-.255 2.419-1.757 2.419-3.573 0-.386-.048-.759-.136-1.108.395-.698.784-1.337 1.152-1.903 1.73 2.258 4.595 3.734 7.838 3.734 4.09 0 7.582-2.35 8.948-5.653l-2.312.472c-1.72 1.516-4.059 2.448-6.636 2.448-.618 0-1.223-.054-1.81-.156h.04c2.508 0 4.711-1.33 5.97-3.335 2.042-.597 3.802-1.763 5.055-3.29.899.535 1.98.847 3.141.847 3.13 0 5.667-2.264 5.667-5.056 0-2.792-2.537-5.055-5.667-5.055-.658 0-1.29.1-1.877.284-1.514-3.386-5.178-5.773-9.456-5.773-2.287 0-4.397.682-6.098 1.833a10.53 10.53 0 00-1.178-1.888 7.378 7.378 0 00-.001-3.361 10.61 10.61 0 011.633 2.36c1.772-1.151 3.97-1.833 6.352-1.833 4.636 0 8.578 2.583 10.03 6.184a8.284 8.284 0 01.595-.021zM34.7 9.858c-4.203.447-7.756 2.725-9.574 5.888.519.434.976.941 1.356 1.506 1.426-1.837 3.47-3.252 5.856-3.998A7.236 7.236 0 0134.7 9.858z" fill="#fff"/><path d="M36.22 56c.763 0 1.497-.037 2.185-.105.044 1.558.287 3.08.788 4.517.181-.051.372-.079.57-.079 1.103 0 2.01.858 2.114 1.956.842.262 1.848.617 2.881 1.043.211-.071.437-.11.671-.11.894 0 1.66.563 1.973 1.36l.152.085c2.425 1.356.708 2.888.708 2.888s-.618.421-2.745.808a2.098 2.098 0 01-2.563.35c-1.694.169-3.895.287-6.733.287-2.695 0-4.815-.107-6.473-.262a7.653 7.653 0 01-2.027.262c-2.348 0-4.25-.97-4.25-2.167 0-.175.04-.346.118-.51 0-.501.293-1.094 1.298-1.656l.152-.085a2.126 2.126 0 011.973-1.36c.235 0 .46.039.671.11l.141-.058a2.13 2.13 0 012.022-1.496c.44 0 .848.136 1.187.37.4-.117.749-.208 1.027-.27a2.16 2.16 0 011.146-1.346c.073-.202.14-.406.203-.61a2.219 2.219 0 01.38-1.578c.145-.801.224-1.62.247-2.449.688.068 1.422.105 2.185.105zm15.584-8.667c0 3.191-6.977 5.778-15.583 5.778-8.607 0-15.584-2.587-15.584-5.778 0-1.906 2.49-3.597 6.331-4.65l.186.317c-1.423.603-2.267 1.354-2.267 2.167 0 1.994 5.075 3.61 11.334 3.61 6.259 0 11.333-1.616 11.333-3.61 0-.813-.843-1.564-2.267-2.167l.186-.316c3.84 1.052 6.331 2.743 6.331 4.65z" fill="#fff"/></svg>