<svg width="50" height="50" fill="none" xmlns="http://www.w3.org/2000/svg"><path opacity=".7" d="M0 3a3 3 0 013-3h44a3 3 0 013 3v39a3 3 0 01-3 3H3a3 3 0 01-3-3V3z" fill="#2C3143"/><path opacity=".3" fill-rule="evenodd" clip-rule="evenodd" d="M0 44v3a3 3 0 003 3h44a3 3 0 003-3v-3a3 3 0 01-3 3H3a3 3 0 01-3-3z" fill="#fff"/><path opacity=".2" d="M10 0h30l-2.121 2.121A3 3 0 0135.757 3H14.243a3 3 0 01-2.122-.879L10 0z" fill="#fff"/><path opacity=".2" fill-rule="evenodd" clip-rule="evenodd" d="M14.177 33.443l1.899-21.645 3.038 8.354 3.418-6.076v5.316L40 8 28.608 25.468h4.936l-6.076 3.038 8.355 3.798-21.646 1.139zm2.658-2.278l7.975-.76-3.038-.76 4.557-3.037h-2.278l7.215-9.874-10.253 6.836-.38-1.9-1.899 4.178-1.519-2.658-.38 7.975zM10 18.633l2.658 3.038v7.215L10 18.633zm9.114 16.329l7.215.38L28.987 38l-9.873-3.038z" fill="#fff"/><g opacity=".5" filter="url(#filter0_d)"><path d="M46.1 33.687c0 .669-.203 1.238-.609 1.707-.405.468-.974.79-1.706.966v.044c.864.108 1.518.371 1.963.791.444.415.666.977.666 1.685 0 1.03-.373 1.833-1.12 2.41-.748.57-1.814.857-3.201.857-1.162 0-2.193-.193-3.091-.58v-1.925c.415.21.871.38 1.37.512.498.132.99.198 1.48.198.746 0 1.298-.127 1.654-.38.357-.255.535-.662.535-1.224 0-.503-.205-.86-.615-1.07-.41-.21-1.065-.314-1.963-.314h-.813v-1.736h.828c.83 0 1.435-.108 1.816-.322.386-.22.579-.594.579-1.12 0-.812-.508-1.217-1.524-1.217-.351 0-.71.059-1.076.176-.362.117-.765.32-1.209.608l-1.047-1.56c.976-.703 2.14-1.055 3.493-1.055 1.109 0 1.983.225 2.622.674.645.45.967 1.074.967 1.875z" fill="#fff"/></g><defs><filter id="filter0_d" x="39.002" y="31.139" width="9.412" height="13.008" filterUnits="userSpaceOnUse" color-interpolation-filters="sRGB"><feFlood flood-opacity="0" result="BackgroundImageFix"/><feColorMatrix in="SourceAlpha" values="0 0 0 0 0 0 0 0 0 0 0 0 0 0 0 0 0 0 127 0"/><feOffset dx="1" dy="1"/><feGaussianBlur stdDeviation=".5"/><feColorMatrix values="0 0 0 0 0 0 0 0 0 0 0 0 0 0 0 0 0 0 0.5 0"/><feBlend in2="BackgroundImageFix" result="effect1_dropShadow"/><feBlend in="SourceGraphic" in2="effect1_dropShadow" result="shape"/></filter></defs></svg>