<svg width="50" height="50" fill="none" xmlns="http://www.w3.org/2000/svg"><path opacity=".7" d="M0 3a3 3 0 013-3h44a3 3 0 013 3v39a3 3 0 01-3 3H3a3 3 0 01-3-3V3z" fill="#2C3143"/><path opacity=".3" fill-rule="evenodd" clip-rule="evenodd" d="M0 44v3a3 3 0 003 3h44a3 3 0 003-3v-3a3 3 0 01-3 3H3a3 3 0 01-3-3z" fill="#fff"/><path opacity=".2" d="M10 0h30l-2.121 2.121A3 3 0 0135.757 3H14.243a3 3 0 01-2.122-.879L10 0z" fill="#fff"/><path opacity=".2" fill-rule="evenodd" clip-rule="evenodd" d="M38.394 24.364v2.823h-1.731l-.15-7.31h1.88v2.824H40v1.663h-1.606zm-3.044 3.708a8.574 8.574 0 01-.313 2.134c-6.649.96-13.4.984-20.056.069a8.413 8.413 0 01-.331-2.228v-.427l.162-7.805a7.96 7.96 0 012.661-4.664 7.904 7.904 0 015.008-1.9h5.038a7.894 7.894 0 014.987 1.884 7.957 7.957 0 012.669 4.63l.175 8.307zm-2.256-8.47a1.118 1.118 0 00-.944-1.099 73.614 73.614 0 00-14.206 0A1.11 1.11 0 0017 19.602v6.927a.852.852 0 00.583.842c.116.038.24.05.36.036a73.598 73.598 0 0114.207 0 .843.843 0 00.944-.878v-6.927zm-3.625 4.467a1.628 1.628 0 01-1.567-.953 1.645 1.645 0 01.3-1.814 1.632 1.632 0 012.817 1.13c.01.423-.147.833-.438 1.14a1.59 1.59 0 01-1.112.497zm-8.744 0a1.63 1.63 0 01-1.578-.943 1.647 1.647 0 01.292-1.82 1.632 1.632 0 012.823 1.125c.013.422-.142.832-.43 1.139a1.583 1.583 0 01-1.107.499zm-7.319-6.162h-1.7l.85-8.421L13.22 8l1.137.693s.875 2.568 1.888 5.053c-2.082 1.424-2.838 4.161-2.838 4.161zm.075 1.97l-.143 7.31h-1.732v-2.823H10V22.7h1.606v-2.823h1.875zm20.331 12.995a7.725 7.725 0 01-2.736 2.456 7.69 7.69 0 01-3.557.907H22.48a7.673 7.673 0 01-3.525-.89 7.707 7.707 0 01-2.725-2.416 74.562 74.562 0 0017.581-.057z" fill="#fff"/></svg>