<svg width="42" height="42" fill="none" xmlns="http://www.w3.org/2000/svg"><path opacity=".5" fill-rule="evenodd" clip-rule="evenodd" d="M31.026 34.364h-4.11a.57.57 0 01-.57-.571v-1.841a.757.757 0 01.582-.629 5.017 5.017 0 004.407-4.497.589.589 0 01.463-.48h1.996a.57.57 0 01.57.57v4.107a3.341 3.341 0 01-3.338 3.34zm.944-16.37h1.782a.61.61 0 01.612.612v4.788a.61.61 0 01-.612.613H31.97a.612.612 0 01-.612-.613v-4.788a.611.611 0 01.612-.612zm-5.624-7.998V8.29a.653.653 0 01.653-.654h4.027a3.34 3.34 0 013.338 3.341v3.98a.692.692 0 01-.695.696h-1.622a.879.879 0 01-.73-.654 5.016 5.016 0 00-4.354-4.319.812.812 0 01-.617-.684zM21 29.353l-8.683-10.905 3.908-4.798h9.55l3.914 4.798L21 29.353zm4.342-14.394h-.19l-1.544 3.489L21 14.958l-2.607 3.49-1.544-3.49h-.19l-2.608 3.49.345.436h3.13l-1.563 1.96L21 27.17l5.037-6.325-1.562-1.96h3.13l.344-.436-2.607-3.49zm-1.734 3.925L21 27.172l-2.607-8.288h5.215zm-5.21-11.248h5.204a.402.402 0 01.404.404v2.198a.403.403 0 01-.404.404h-5.203a.403.403 0 01-.404-.404V8.04a.403.403 0 01.404-.404zm-8.309 8.019H8.195a.559.559 0 01-.559-.557v-4.12a3.342 3.342 0 013.344-3.342h4.146a.53.53 0 01.529.53v1.757a.832.832 0 01-.594.756 5.017 5.017 0 00-4.378 4.32.832.832 0 01-.594.656zm-.005 8.352h-1.89a.557.557 0 01-.558-.557v-4.9a.557.557 0 01.559-.556h1.889a.556.556 0 01.558.556v4.9a.557.557 0 01-.558.557zm5.57 7.987v1.785a.584.584 0 01-.581.585H10.98a3.342 3.342 0 01-3.344-3.341V26.93a.584.584 0 01.583-.584h1.924a.75.75 0 01.534.603 5.014 5.014 0 004.348 4.369.832.832 0 01.63.676zm7.793 2.37h-4.894a.557.557 0 01-.558-.557v-1.893a.558.558 0 01.558-.557h4.894a.558.558 0 01.559.557v1.893a.556.556 0 01-.559.557z" fill="#fff"/></svg>