<svg width="50" height="50" fill="none" xmlns="http://www.w3.org/2000/svg"><path opacity=".7" d="M0 3a3 3 0 013-3h44a3 3 0 013 3v39a3 3 0 01-3 3H3a3 3 0 01-3-3V3z" fill="#2C3143"/><path opacity=".3" fill-rule="evenodd" clip-rule="evenodd" d="M0 44v3a3 3 0 003 3h44a3 3 0 003-3v-3a3 3 0 01-3 3H3a3 3 0 01-3-3z" fill="#fff"/><path opacity=".2" d="M10 0h30l-2.121 2.121A3 3 0 0135.757 3H14.243a3 3 0 01-2.122-.879L10 0z" fill="#fff"/><path opacity=".2" fill-rule="evenodd" clip-rule="evenodd" d="M39.63 17.297s-1.315 4.375-3.013 6.077a8.114 8.114 0 01-8.624 1.844L16.287 36.92A3.681 3.681 0 0110 34.317a3.684 3.684 0 011.078-2.605l11.707-11.706a8.11 8.11 0 011.845-8.619c1.768-1.771 5.789-3.026 5.789-3.026L32.704 8l1.047 1.043-4.692 4.69v2.084l3.128 3.128h2.081l4.692-4.69L40 15.298l-.37 2zM12.904 33.015a1.473 1.473 0 102.08 0 1.464 1.464 0 00-2.08 0zm10.94-10.943l-8.598 8.598 2.088 2.085 8.598-8.599-2.088-2.084z" fill="#fff"/><g opacity=".5" filter="url(#filter0_d)"><path d="M44.627 42h-2.263v-6.196l.022-1.018.036-1.114c-.376.376-.637.623-.783.74l-1.23.989-1.092-1.362 3.45-2.747h1.86V42z" fill="#fff"/></g><defs><filter id="filter0_d" x="39.316" y="31.293" width="7.31" height="12.708" filterUnits="userSpaceOnUse" color-interpolation-filters="sRGB"><feFlood flood-opacity="0" result="BackgroundImageFix"/><feColorMatrix in="SourceAlpha" values="0 0 0 0 0 0 0 0 0 0 0 0 0 0 0 0 0 0 127 0"/><feOffset dx="1" dy="1"/><feGaussianBlur stdDeviation=".5"/><feColorMatrix values="0 0 0 0 0 0 0 0 0 0 0 0 0 0 0 0 0 0 0.5 0"/><feBlend in2="BackgroundImageFix" result="effect1_dropShadow"/><feBlend in="SourceGraphic" in2="effect1_dropShadow" result="shape"/></filter></defs></svg>