<svg width="50" height="50" fill="none" xmlns="http://www.w3.org/2000/svg"><path opacity=".7" d="M0 3a3 3 0 013-3h44a3 3 0 013 3v39a3 3 0 01-3 3H3a3 3 0 01-3-3V3z" fill="#2C3143"/><path opacity=".3" fill-rule="evenodd" clip-rule="evenodd" d="M0 44v3a3 3 0 003 3h44a3 3 0 003-3v-3a3 3 0 01-3 3H3a3 3 0 01-3-3z" fill="#fff"/><path opacity=".2" d="M10 0h30l-2.121 2.121A3 3 0 0135.757 3H14.243a3 3 0 01-2.122-.879L10 0z" fill="#fff"/><path opacity=".2" fill-rule="evenodd" clip-rule="evenodd" d="M10.883 16.625L25 8l14.118 8.625v4.5l-1.145.375-4.197-3v7.125l-2.67 1.875-.764-.375v-10.5l-3.052-2.25v23.25l-.382.375h-3.815l-.382-.375v-23.25l-3.052 2.25v10.5l-1.145.375-2.29-1.875V18.5l-4.197 3-1.144-.375v-4.5z" fill="#fff"/><g opacity=".5" filter="url(#filter0_d)"><path d="M46.758 39.78H45.47V42h-2.212v-2.22h-4.57v-1.574l4.695-6.914h2.087v6.73h1.29v1.759zm-3.5-1.757v-1.817c0-.302.011-.742.036-1.318.024-.576.044-.91.059-1.003h-.06c-.18.4-.397.79-.65 1.172l-1.964 2.966h2.578z" fill="#fff"/></g><defs><filter id="filter0_d" x="38.688" y="31.293" width="10.071" height="12.708" filterUnits="userSpaceOnUse" color-interpolation-filters="sRGB"><feFlood flood-opacity="0" result="BackgroundImageFix"/><feColorMatrix in="SourceAlpha" values="0 0 0 0 0 0 0 0 0 0 0 0 0 0 0 0 0 0 127 0"/><feOffset dx="1" dy="1"/><feGaussianBlur stdDeviation=".5"/><feColorMatrix values="0 0 0 0 0 0 0 0 0 0 0 0 0 0 0 0 0 0 0.5 0"/><feBlend in2="BackgroundImageFix" result="effect1_dropShadow"/><feBlend in="SourceGraphic" in2="effect1_dropShadow" result="shape"/></filter></defs></svg>