<svg width="50" height="50" fill="none" xmlns="http://www.w3.org/2000/svg"><path opacity=".7" d="M0 3a3 3 0 013-3h44a3 3 0 013 3v39a3 3 0 01-3 3H3a3 3 0 01-3-3V3z" fill="#2C3143"/><path opacity=".3" fill-rule="evenodd" clip-rule="evenodd" d="M0 44v3a3 3 0 003 3h44a3 3 0 003-3v-3a3 3 0 01-3 3H3a3 3 0 01-3-3z" fill="#fff"/><path opacity=".2" d="M10 0h30l-2.121 2.121A3 3 0 0135.757 3H14.243a3 3 0 01-2.122-.879L10 0z" fill="#fff"/><path opacity=".2" fill-rule="evenodd" clip-rule="evenodd" d="M35.26 27.064C31.97 33.717 24.609 38 24.609 38s-7.336-4.14-10.462-10.875c-3.223-6.948-2.242-16.5-2.242-16.5S16.067 8 24.61 8c8.5 0 12.698 2.625 12.698 2.625-.019-.006.579 11.125-2.047 16.44zm-.939-14.189S30.824 11 24.627 11c-6.22 0-9.73 1.875-9.73 1.875s-.244 8.078 2.108 13.115c2.279 4.884 7.622 7.885 7.622 7.885A20.128 20.128 0 0032.451 26c2.65-4.8 1.858-13.132 1.87-13.125zM18.175 24.582c-1.578-4.089-1.402-10.2-1.402-10.2s2.834-1.506 7.854-1.506a22.156 22.156 0 014.722.488L18.175 24.582zm14.227-7.908c-.104 2.607-.42 6.742-1.402 8.617-1.998 3.84-6.373 6.334-6.373 6.334a18.337 18.337 0 01-3.954-3.175l11.729-11.776z" fill="#fff"/><g opacity=".5" filter="url(#filter0_d)"><path d="M46.517 42H39.03v-1.575l2.688-2.717c.796-.815 1.316-1.38 1.56-1.692.244-.317.42-.61.528-.879.107-.268.16-.547.16-.835 0-.43-.119-.75-.358-.96-.235-.21-.55-.314-.945-.314-.415 0-.818.095-1.208.285-.391.19-.799.462-1.224.813l-1.23-1.457c.527-.45.964-.767 1.311-.952a4.698 4.698 0 011.135-.425c.41-.103.87-.154 1.377-.154.67 0 1.26.122 1.773.366.512.244.91.586 1.194 1.026.283.44.424.942.424 1.509 0 .493-.088.957-.263 1.391-.171.43-.44.872-.806 1.326-.361.454-1.001 1.1-1.919 1.94l-1.377 1.297v.103h4.666V42z" fill="#fff"/></g><g filter="url(#filter1_d)"><path fill-rule="evenodd" clip-rule="evenodd" d="M30.28 31.494A9.953 9.953 0 0125 33c-5.523 0-10-4.477-10-10 0-1.938.551-3.748 1.506-5.28L30.28 31.494zm3.214-3.214L19.72 14.506A9.953 9.953 0 0125 13c5.523 0 10 4.477 10 10a9.953 9.953 0 01-1.506 5.28zM40 23c0 8.284-6.716 15-15 15-8.284 0-15-6.716-15-15 0-8.284 6.716-15 15-15 8.284 0 15 6.716 15 15z" fill="#EB5757"/></g><defs><filter id="filter0_d" x="39.002" y="31.139" width="9.515" height="12.862" filterUnits="userSpaceOnUse" color-interpolation-filters="sRGB"><feFlood flood-opacity="0" result="BackgroundImageFix"/><feColorMatrix in="SourceAlpha" values="0 0 0 0 0 0 0 0 0 0 0 0 0 0 0 0 0 0 127 0"/><feOffset dx="1" dy="1"/><feGaussianBlur stdDeviation=".5"/><feColorMatrix values="0 0 0 0 0 0 0 0 0 0 0 0 0 0 0 0 0 0 0.5 0"/><feBlend in2="BackgroundImageFix" result="effect1_dropShadow"/><feBlend in="SourceGraphic" in2="effect1_dropShadow" result="shape"/></filter><filter id="filter1_d" x="2" y="0" width="46" height="46" filterUnits="userSpaceOnUse" color-interpolation-filters="sRGB"><feFlood flood-opacity="0" result="BackgroundImageFix"/><feColorMatrix in="SourceAlpha" values="0 0 0 0 0 0 0 0 0 0 0 0 0 0 0 0 0 0 127 0"/><feOffset/><feGaussianBlur stdDeviation="4"/><feColorMatrix values="0 0 0 0 1 0 0 0 0 0.296943 0 0 0 0 0.296943 0 0 0 0.5 0"/><feBlend in2="BackgroundImageFix" result="effect1_dropShadow"/><feBlend in="SourceGraphic" in2="effect1_dropShadow" result="shape"/></filter></defs></svg>