<svg width="32" height="32" fill="none" xmlns="http://www.w3.org/2000/svg"><path fill-rule="evenodd" clip-rule="evenodd" d="M20.881 16.975c-.19.207-.394.406-.607.596a.478.478 0 00-.15.252l-.962 2.017-1.447-.915-.698 1.48-1.36-.94-.786 1.5-1.865-1.274a.508.508 0 00-.259-.144 8.305 8.305 0 01-.83-.22 8.533 8.533 0 01-4.344-3.124 8.245 8.245 0 01-1.57-5.049A8.26 8.26 0 017.832 6.19a8.558 8.558 0 014.5-2.905 8.712 8.712 0 015.38.312A8.5 8.5 0 0121.83 7a8.228 8.228 0 01-.949 9.974zm-11.536-2.43a2.274 2.274 0 00.683 1.634c.219.216.478.386.764.503a2.393 2.393 0 001.803 0 2.35 2.35 0 00.763-.502 2.257 2.257 0 00.684-1.634H9.345zm5.868 1.833l-.492 1.225.308.293.678-.43-.494-1.088zm1.437.84l.808.041.116-.404-1.062-.813.138 1.176zm4.019-5.644l-4.067 2.3c.311.529.824.914 1.426 1.072a2.392 2.392 0 001.782-.23c.54-.305.933-.808 1.094-1.397a2.259 2.259 0 00-.235-1.745zM10.639 24.35a1.207 1.207 0 01-.815-.413 1.158 1.158 0 01-.278-.856 1.12 1.12 0 01.22-.561 1.11 1.11 0 01-.104-.593c.035-.31.194-.592.442-.787.248-.194.565-.285.88-.25.338.032 1.071.4 1.713.757l4.739.455 3.826-2.775c.364-.628.8-1.314 1.072-1.512a1.217 1.217 0 011.68.224c.124.165.2.358.22.562.193.078.36.206.484.37a1.156 1.156 0 01-.27 1.639c-.294.212-1.192.436-1.95.597l-.9.652-.782.568.043.004-2.762 1.977-.01-.001-3.728 2.703c-.377.663-.858 1.44-1.151 1.652a1.217 1.217 0 01-1.68-.224 1.117 1.117 0 01-.22-.562 1.15 1.15 0 01-.484-.37 1.155 1.155 0 01.27-1.638c.273-.198 1.07-.406 1.79-.563l1.823-1.323-2.083-.2c-.735.244-1.623.503-1.986.468zm10.222-1.918l2.212.212c.7-.227 1.493-.45 1.83-.418.317.027.61.176.815.414.205.238.305.546.278.856-.02.203-.097.397-.221.561.089.185.125.39.105.593a1.17 1.17 0 01-.442.787 1.216 1.216 0 01-.88.25c-.364-.035-1.183-.458-1.856-.837l-3.374-.324 1.533-2.094z" fill="#00D7FF"/></svg>