<svg width="120" height="120" fill="none" xmlns="http://www.w3.org/2000/svg"><path opacity=".7" fill-rule="evenodd" clip-rule="evenodd" d="M89.38 108.883c.861 1.404 2.7 1.857 4.067.937C109.463 99.047 120 80.754 120 60c0-33.137-26.863-60-60-60S0 26.863 0 60c0 20.999 10.787 39.478 27.122 50.198 1.378.904 3.211.431 4.057-.984l2.908-4.865c.85-1.423 2.688-1.877 4.161-1.118a47.502 47.502 0 0043.99-.254c1.464-.776 3.307-.343 4.174 1.069l2.967 4.837z" fill="#2C3143"/><g opacity=".5"><mask id="a" fill="#fff"><path fill-rule="evenodd" clip-rule="evenodd" d="M90.936 111.42C108.353 100.919 120 81.82 120 60c0-33.137-26.863-60-60-60S0 26.863 0 60c0 22.064 11.91 41.347 29.651 51.77l5.976-9.996a47.502 47.502 0 0049.216-.285l6.093 9.931z"/></mask><path d="M90.936 111.42l-1.705 1.046 1.038 1.692 1.7-1.025-1.033-1.713zm-61.285.35l-1.013 1.724 1.711 1.005 1.019-1.703-1.717-1.026zm5.976-9.996l1.026-1.717-1.717-1.026-1.026 1.716 1.717 1.027zm24.647 6.728l.012 2-.012-2zm24.569-7.013l1.705-1.046-1.046-1.704-1.705 1.046 1.046 1.704zM118 60c0 21.09-11.255 39.553-28.097 49.707l2.066 3.426C109.96 102.285 122 82.549 122 60h-4zM60 2c32.032 0 58 25.968 58 58h4c0-34.242-27.758-62-62-62v4zM2 60C2 27.968 27.968 2 60 2v-4C25.758-2-2 25.758-2 60h4zm28.664 50.045C13.51 99.967 2 81.326 2 60h-4c0 22.802 12.31 42.727 30.638 53.494l2.026-3.449zm3.246-9.298l-5.976 9.996 3.434 2.053 5.975-9.996-3.433-2.053zm26.353 5.755a45.506 45.506 0 01-23.61-6.445L34.6 103.49a49.489 49.489 0 0025.686 7.012l-.023-4zm23.534-6.717a45.504 45.504 0 01-23.534 6.717l.023 4a49.497 49.497 0 0025.603-7.308l-2.092-3.41zm8.844 10.589l-6.093-9.931-3.41 2.092 6.093 9.931 3.41-2.092z" fill="#303030" mask="url(#a)"/></g><path opacity=".3" d="M26.234 104.841a56 56 0 1167.458-.277l-2.878-3.783a51.245 51.245 0 00-1.271-82.499 51.246 51.246 0 00-60.462 82.753l-2.847 3.806z" fill="#000"/></svg>