<svg width="85" height="85" viewBox="0 0 72 72" fill="none" xmlns="http://www.w3.org/2000/svg"><g filter="url(#filter0_d)" clip-path="url(#clip0)"><path fill-rule="evenodd" clip-rule="evenodd" d="M70.22 31.197l-16.607 8.886.014.11 12.225 3.518v.075l-13.185 2.987-.55-.668.268-.38 5.21-1.976-.194-.137-5.852-2.53-.123-1.583 8.127-5.144-.023-.098-9.8.054-.664-.904 1.382-6.526-6.082 3.511-1.533-.579-1.086-2.856-.388-.144-3.977 2.13-1.094-.453-3.06-12.078-.183.23-2.303 11.086-1.003.821-1.005-.218-4.937-2.747-.074.056 1.503 4.555-.773.957-2.875-.42 1.148 1.196.338.542-.386.869-1.017-.15-7.458-5.953-.13-.176 8.668 1.963-.087-.464-3.694-8.118 10.214 5.84L32.87 5.4l.282-.4.424.445 4.04 21.452 5.728-4.316 1.15 6.157 10.411-7.76-4.103 11.792 17.746-1.488 1.673-.085zm-48.926 4.535l1.304-.666 3.24-.655 1.13-1.367 10.662.074.937 1.223 9.543 3.673.859.925 1.569 5.145.158 1.644-.829 1.084-3.275.744.118.255 1.06 1.258 14.837 2.387 1.181.812.366.472-.281.82-1.338.22.72 1.213.074.77.414.544.07 1.181-.175.21-.627 1.93-.676.42-.147.626-1.195 1.2-.248.548-.491.616-.332.083-.459.226-.248.458-.457.55-.286.108-1.103.788-.349.083-.953.787-2.427.62-4.935.247-2.42-.555-5.996-3.533-1.177-.279-10.322.005-.726.16-6.463 3.76-2.24.454-7.25-.827-.952-.788-.423-.11-1.774-1.31-.325-.603-.456-.216-.294-.062-.51-.599-.256-.59-1.157-1-.15-.707-.693-.512-.683-1.984-.142-1.255.382-.516.202-1.01.263-.541.382-.48-1.221-.274-.305-.932.627-.667 2.633-1.21 12.533-1.458.464-.212 1.294-1.643-4.146-1.645-.096-.102 1.003-4.577-14.884-3.82-1.206-1.418.593-2.708.362-.48 1.34-.408 15.986 3.584.792-.188zm26.039 9.35l.005-.039.874-.064.544-.644-.904-3.539-1.284-1.551-1.903-1.01-10.747-2.529-1.199.979.043 1.203 1.108 3.65.79.936 3.417 1.296 9.256 1.313zm3.767 7.54l-4.281-.652-.326.587 3.128 4.413.529-.094 1.453-3.441-.503-.813zm11.304 2.239l-.367-.146-6.994.104-.504.322.518.265 7.282-.109.22-.193-.155-.243zm-.599 1.133h-2.99v.032l-3.508.06-.823.45.255 1.006 7.795.126.459-.988-1.188-.686zm.488 3.254l.266-.545-.44-.357-6.454-.15-1.244.359-.272.506.414.392 3.737.128v.015h2.793l1.2-.348zm-1.354 1.762l.35-.484-.461-.38-5.813-.18-1.274.386-.22.353.328.302.192.049 6.095.148.803-.194zm-1.753 1.736l.78-.254-.045-.579-.727-.176-5.096-.083-1.35.392-.157.293.24.224 6.355.183zm-1.658 1.283l.813-.165.204-.255-.198-.257-.772-.16-5.179-.01-1.243.379-.277.256.031.127 6.62.085zm-.733.89l.357-.235-.734-.198-5.022.092-1.506.345-.283.29.568.123 6.62-.417zm-1.543.91l.379-.158-.029-.124-7.087.396-.23.262 6.967-.376zm-34.47-6.315l15.483 1.308 11.02-1.314.847-.33.308-.933-3.43-5.486-1.065-1.075-.549-.227-.438.45 1.123 1.992-.328.734-19.353.027-.356-.788 1.11-1.997-.332-.403-.6.188-1.086 1.048-3.454 5.474.394 1.075.705.257zm-7.819 6.366l6.45.42.437-.165-.783-.277-6.578-.28-.026.11.5.192zm-1.667-.95l6.865.414.341-.161-.393-.289-6.504-.39-.58.153.271.274zm2.1-9.974l-.295-.11-7.22-.061-.348.322.414.225 3.702.1v-.03l3.725-.07.155-.2-.132-.176zm-.829 1.118l-6.18-.079-1.258.646.415 1.035 1.509.06v-.058l6.25-.103.269-1.075-1.004-.426zm.361 2.199l-7.147.172-.142.654.337.276.996.233h2.832v-.01l3.772-.15.14-.827-.788-.348zm1.42 2.085l-.275-.161-1.16-.224-5.836.265-.083.68.889.301 6.328-.192.352-.278-.215-.391zm.927 1.646l-.209-.112-3.555-.235v.01l-2.509.072-.845.195-.049.56.62.248 6.44-.141.346-.263-.239-.334zm-5.54 1.372l-.187.227.188.269.73.165 6.337.007.396-.097.021-.124-.323-.271-1.291-.362-5.871.186zm11.74-11.353l-.25-.052-4.341.706-.415.686 1.47 3.52.557.078 3.17-4.53-.191-.408zM5.197 33.953l.493 1.488 4.147.983 14.529 3.477.75-.243.077-.798-.415-.524-18.942-4.63-.64.247z" fill="#FFBC09"/></g><defs><clipPath id="clip0"><path fill="#fff" d="M0 0h72v72H0z"/></clipPath><filter id="filter0_d" x="-1.779" y="1" width="76" height="70" filterUnits="userSpaceOnUse" color-interpolation-filters="sRGB"><feFlood flood-opacity="0" result="BackgroundImageFix"/><feColorMatrix in="SourceAlpha" values="0 0 0 0 0 0 0 0 0 0 0 0 0 0 0 0 0 0 127 0"/><feOffset/><feGaussianBlur stdDeviation="2"/><feColorMatrix values="0 0 0 0 1 0 0 0 0 0.556235 0 0 0 0 0.0352941 0 0 0 0.5 0"/><feBlend in2="BackgroundImageFix" result="effect1_dropShadow"/><feBlend in="SourceGraphic" in2="effect1_dropShadow" result="shape"/></filter></defs></svg>