<svg width="85" height="85" viewBox="0 0 72 72" fill="none" xmlns="http://www.w3.org/2000/svg"><g filter="url(#filter0_d)" fill="#FFBC09"><path d="M33.253 48.255h.044a.935.935 0 00.768-.38l9.694-13.092a.796.796 0 00.067-.886.953.953 0 00-.813-.465l-5.66-.04a.288.288 0 01-.281-.345l1.67-8.273c.09-.38-.135-.781-.52-.95a.956.956 0 00-1.107.253l-10.28 12.1a.795.795 0 00-.114.908.938.938 0 00.837.486l6.298.04c.18.001.315.164.282.34l-1.722 9.291a.82.82 0 00.542.95 1.03 1.03 0 00.295.063z"/><path fill-rule="evenodd" clip-rule="evenodd" d="M56.247 56.896a.285.285 0 00.13-.061C62.886 51.416 67 43.445 67 34.558 67 18.234 53.12 5 36 5 18.88 5 5 18.234 5 34.558c0 8.887 4.113 16.858 10.624 22.277.037.03.081.052.129.06l.163.032c.286.053.459-.308.247-.506a26.517 26.517 0 01-5.752-7.757.285.285 0 01.258-.408h2.847a.288.288 0 00.222-.104l2.818-3.382a.294.294 0 01.49.066c3.33 7.13 10.565 12.071 18.954 12.071 11.547 0 20.907-9.36 20.907-20.907a21.1 21.1 0 00-.158-2.584c-.033-.264.279-.44.483-.269l2.479 2.065a.288.288 0 00.184.067h3.843c.148 0 .273.113.285.26.062.714.093 1.435.093 2.164 0 7.383-3.224 14.059-8.423 18.852-.172.159-.033.45.198.407l.115-.021.241-.045zm.25-25.033a.293.293 0 00.194.22l2.974.991a.29.29 0 00.24-.026l3.127-1.876a.287.287 0 00.128-.324C59.947 19.583 49.005 11.289 36 11.289a29.53 29.53 0 00-11.684 2.382.285.285 0 00-.088.464l1.553 1.553a.288.288 0 01.07.295l-.469 1.405c-.085.255.197.481.431.35A20.812 20.812 0 0136 15.093c10.13 0 18.578 7.205 20.498 16.77zm-32.16-13.217a.29.29 0 00.128-.24v-.987a.288.288 0 00-.14-.247L21.3 15.356a.287.287 0 00-.294-.001C13.12 20.034 7.884 28.294 7.884 37.703c0 2.387.337 4.7.969 6.9a.286.286 0 00.185.193l3.779 1.26a.288.288 0 00.22-.016l3.475-1.738a.291.291 0 00.138-.371A20.847 20.847 0 0115.093 36c0-7.228 3.668-13.599 9.243-17.354zM54.022 36c0 9.954-8.069 18.023-18.023 18.023-9.954 0-18.023-8.069-18.023-18.023 0-9.954 8.069-18.023 18.023-18.023 9.954 0 18.023 8.069 18.023 18.023z"/><path d="M5 60.512c0-1.328 1.906-2.563 5.178-3.592a.289.289 0 01.086-.013h.684c.306 0 .427.47.207.682-.255.247-.388.5-.388.76 0 2.389 11.297 4.325 25.233 4.325 13.935 0 25.233-1.936 25.233-4.325 0-.26-.133-.513-.388-.76-.22-.213-.1-.682.207-.682h.684c.029 0 .058.005.086.013C65.094 57.95 67 59.184 67 60.512 67 64.095 53.12 67 36 67c-17.12 0-31-2.905-31-6.488z"/></g><defs><filter id="filter0_d" x="1" y="1" width="70" height="70" filterUnits="userSpaceOnUse" color-interpolation-filters="sRGB"><feFlood flood-opacity="0" result="BackgroundImageFix"/><feColorMatrix in="SourceAlpha" values="0 0 0 0 0 0 0 0 0 0 0 0 0 0 0 0 0 0 127 0"/><feOffset/><feGaussianBlur stdDeviation="2"/><feColorMatrix values="0 0 0 0 1 0 0 0 0 0.556235 0 0 0 0 0.0352941 0 0 0 0.5 0"/><feBlend in2="BackgroundImageFix" result="effect1_dropShadow"/><feBlend in="SourceGraphic" in2="effect1_dropShadow" result="shape"/></filter></defs></svg>