<svg width="85" height="85" viewBox="0 0 72 72" fill="none" xmlns="http://www.w3.org/2000/svg"><g filter="url(#filter0_d)" fill="#FFBC09" clip-path="url(#clip0)"><path d="M44.157 5l.994 6.851-3.645 2.39-2.26-2.808L44.156 5zm-14.339 7.163L25.441 9.25l-.871 5.435 3.493.955 1.755-3.477zm-12.443 8.603l-5.269.193 2.52 4.904 3.392-1.261-.643-3.836zm-4.963 14.207l-8.191 3.6 8.451 1.818 2.536-2.69-2.796-2.728zm5.606 14.941v2.707l2.688-.68v-2.005l-2.688-.022zm10.91 8.51l.832 7.449 4.91-6.434-2.259-2.807-3.483 1.792zm15.171.286l3.564 1.696 1.684-4.218-3.493-.956L44.1 58.71zm12.637-9.604l5.075.808-2.326-5.906-3.392 1.262.642 3.836zM61.505 35.9l6.716-3.784-7.516-1.941-1.996 2.996 2.796 2.73zm-4.413-14.384l1.443-5.024-5.198.042-.126 4.403 3.881.58z"/><path fill-rule="evenodd" clip-rule="evenodd" d="M54.028 7.505l-12.892 8.458-7.191-8.935-5.16 10.221-11.117-3.04 1.89 11.273-10.799 4.015 8.216 8.02-9.702 10.78 14.753.46 1.297 8.721 9.458-2.568L39.968 67l5.163-13.376 11.118 3.04-1.696-12.275 10.605-3.014-8.216-8.02 6.354-9.537-11.405-1.703 2.137-14.61zM40.693 24.757l-3.99-8.181-3.99 8.181-8.364-3.726L26.6 29.84l-8.825 2.472 7.44 5.314-5.157 7.514 9.147-.667.925 9.04 6.573-6.336 6.574 6.336.925-9.04 9.146.667-5.156-7.514 7.439-5.314-8.825-2.472 2.251-8.809-8.364 3.726z"/></g><defs><clipPath id="clip0"><path fill="#fff" d="M0 0h72v72H0z"/></clipPath><filter id="filter0_d" x=".221" y="1" width="72" height="70" filterUnits="userSpaceOnUse" color-interpolation-filters="sRGB"><feFlood flood-opacity="0" result="BackgroundImageFix"/><feColorMatrix in="SourceAlpha" values="0 0 0 0 0 0 0 0 0 0 0 0 0 0 0 0 0 0 127 0"/><feOffset/><feGaussianBlur stdDeviation="2"/><feColorMatrix values="0 0 0 0 1 0 0 0 0 0.556235 0 0 0 0 0.0352941 0 0 0 0.5 0"/><feBlend in2="BackgroundImageFix" result="effect1_dropShadow"/><feBlend in="SourceGraphic" in2="effect1_dropShadow" result="shape"/></filter></defs></svg>