<svg width="85" height="85" viewBox="0 0 72 72" fill="none" xmlns="http://www.w3.org/2000/svg"><g filter="url(#filter0_d)" clip-path="url(#clip0)"><path fill-rule="evenodd" clip-rule="evenodd" d="M38.871 4.136c.159.016.318.03.476.05.308.036.615.079.921.126.132.02.264.037.395.06.397.067.793.143 1.188.228.2.043.4.091.6.138a28.008 28.008 0 011.31.345c.2.058.398.12.597.182a32.503 32.503 0 018.383 4.12 36.868 36.868 0 013.896 3.069 41.44 41.44 0 011.818 1.74c.591.6 1.164 1.215 1.72 1.843l.172.197c.265.31.523.626.777.942l.245.304c.233.297.46.598.682.9.093.127.187.253.278.38.207.288.407.577.604.87.099.145.197.29.293.437a35.53 35.53 0 011.584 2.68 32.286 32.286 0 011.034 2.138 30.079 30.079 0 011.443 4.093c.063.235.121.471.177.707.054.226.109.45.157.675.053.25.1.5.146.75.04.213.08.426.114.642.043.269.078.54.113.81.026.197.053.393.075.591.032.307.055.617.078.926.011.163.026.325.035.488.025.474.038.95.039 1.428 0 .46-.014.916-.037 1.37-.007.149-.02.296-.03.444-.021.306-.045.613-.076.919a27.782 27.782 0 01-.175 1.36 26.505 26.505 0 01-.248 1.368c-.035.17-.07.342-.11.513a26.62 26.62 0 01-.223.903c-.038.144-.073.289-.114.433-.121.435-.254.87-.399 1.304-.037.111-.078.222-.117.334-.113.327-.23.653-.357.979-.07.18-.144.358-.217.538a30.757 30.757 0 01-.595 1.357 33.64 33.64 0 01-.654 1.317c-.12.228-.243.454-.37.68-.114.206-.228.412-.347.616-.13.223-.266.444-.402.665-.125.204-.25.409-.38.611a34.708 34.708 0 01-1.28 1.852c-.127.173-.253.345-.383.517-.18.237-.364.47-.553.704a35.789 35.789 0 01-1.368 1.62c-.215.24-.433.479-.654.715-.114.122-.23.241-.344.361a40.46 40.46 0 01-.739.75l-.16.155a39.812 39.812 0 01-2.923 2.583l-.165.131c-.306.243-.616.477-.928.707l-.25.185a37.175 37.175 0 01-2.163 1.456l-.122.074c-1.472.91-3.015 1.7-4.615 2.363l-.043.018c-.364.15-.731.29-1.097.423l-.166.061c-.357.128-.715.248-1.074.36l-.159.049A26.951 26.951 0 0136.216 68a24.726 24.726 0 006.871-.982c.13-.605.25-1.242.362-1.91a145.967 145.967 0 01-7.23-3.374 145.33 145.33 0 01-7.232 3.373c.112.669.232 1.306.36 1.91 2.233.65 4.545.98 6.87.983a26.958 26.958 0 01-6.85-.891l-.069-.02a27.745 27.745 0 01-1.069-.307c-4.345-1.325-8.7-3.869-12.525-7.317-4.146-3.724-7.499-8.357-9.39-13.022a27.382 27.382 0 01-2.093-10.44 26.58 26.58 0 01.27-3.74c.731-5.631 3.585-11.445 7.952-16.433a46.666 46.666 0 011.701-1.8 41.968 41.968 0 011.805-1.706 36.944 36.944 0 013.875-3.019 32.464 32.464 0 018.286-4.048 23.865 23.865 0 011.235-.358c.221-.058.443-.113.665-.165a23.65 23.65 0 011.783-.365c.123-.02.248-.037.37-.056a28.362 28.362 0 011.413-.178c.302-.03.606-.055.911-.075.14-.009.278-.018.418-.025.439-.022.88-.035 1.323-.035.443 0 .883.013 1.32.035.142.007.283.017.424.026.301.02.602.045.901.074h-.002zM7.93 32.276l.937.6a207.07 207.07 0 017.183-5.01c.163-3.116.427-6.147.824-8.997a76.287 76.287 0 00-.7-.33c-4.037 3.92-6.935 8.755-8.244 13.737zm15.736 1.298c-3.22-1.89-4.14-2.464-6.65-3.926a275.949 275.949 0 00-7.298 4.918c-.035 2.967.038 5.948.234 8.853a157.408 157.408 0 007.438 5.26c2.396-1.27 3.246-1.95 6.396-3.724a351.42 351.42 0 01-.12-11.381zm1.355-2.247a691.563 691.563 0 019.972-5.813c.012-3.793.052-4.808.076-7.843a219.387 219.387 0 00-7.954-4.088 155.142 155.142 0 00-8.21 5.012c-.357 2.893-.595 5.973-.744 9.14 2.529 1.435 3.625 1.72 6.86 3.592zm-6.904-14.26a136.464 136.464 0 018.11-4.993c.005-.045.01-.09.017-.135a30.62 30.62 0 00-8.33 5.033l.203.094zm10.229-5.15a199.888 199.888 0 017.88 3.998 201.907 201.907 0 017.88-3.998l-.076-.736a26.443 26.443 0 00-15.608 0l-.076.736zm27.7 47.302c3.969-3.873 6.999-8.651 8.381-13.62-.67-.348-1.182-.63-1.18-.628a132.303 132.303 0 01-7.327 5.348 67.93 67.93 0 01-1.355 8.326c.513.21 1.007.4 1.48.574zm-.469-40.35c.397 2.849.66 5.88.824 8.996a208.706 208.706 0 017.18 5.008l.936-.601c-1.31-4.98-4.207-9.815-8.244-13.733-.421.197-.696.33-.696.33zm9.783 20.85a25.15 25.15 0 00-.391-5.449l-.492.334c.037 2.877-.039 5.767-.243 8.582.23.132.454.26.676.385.249-1.27.4-2.558.45-3.851zm-2.865 3.695c.196-2.904.27-5.886.234-8.853a287.552 287.552 0 00-7.296-4.915c-2.51 1.462-3.142 2.036-6.364 3.927a351.34 351.34 0 01-.124 11.381c3.15 1.774 3.716 2.453 6.112 3.724a156.873 156.873 0 007.438-5.264zm-7.961-26.443a30.621 30.621 0 00-8.327-5.032l.017.134a136.849 136.849 0 018.108 4.992l.202-.094zm-.246 10.762c-.148-3.167-.386-6.247-.744-9.14a154.942 154.942 0 00-8.207-5.01 219.638 219.638 0 00-7.956 4.089c.025 3.035.35 4.05.36 7.842a708.385 708.385 0 019.972 5.813c3.235-1.874 4.046-2.157 6.575-3.594zm.09 33.015a44.488 44.488 0 01-1.129-.434 102.636 102.636 0 01-7.853 4.617c-.105.493-.217.969-.334 1.428l.071-.02a31.355 31.355 0 009.246-5.59zm-17.062-.57a154.18 154.18 0 007.35 3.49 115.883 115.883 0 007.966-4.666c.562-2.792.97-5.613 1.22-8.45-2.403-1.242-3.143-1.63-6.296-3.382a375.485 375.485 0 01-9.85 5.677c-.023 3.588-.353 4.627-.39 7.331zm8.964-15.157c.082-3.757.113-7.62.098-11.461-3.29-1.935-6.667-3.899-10.01-5.815a985.716 985.716 0 00-10.012 5.816c-.016 3.841.015 7.703.096 11.46a454.346 454.346 0 009.914 5.706 450.584 450.584 0 009.914-5.706zM35.127 60.178c-.036-2.704-.081-3.743-.103-7.331a376.277 376.277 0 01-9.85-5.675c-3.153 1.75-4.177 2.139-6.58 3.381.25 2.837.657 5.658 1.218 8.45a116.343 116.343 0 007.963 4.666 155.17 155.17 0 007.352-3.49zm-8.083 4.753a103.129 103.129 0 01-7.851-4.615c-.39.155-.766.3-1.131.434a31.316 31.316 0 009.318 5.62 37.16 37.16 0 01-.334-1.44h-.002zm-10.646-5.708a43.73 43.73 0 001.483-.575 67.787 67.787 0 01-1.354-8.327 132.397 132.397 0 01-7.326-5.345c-.407.221-.801.431-1.183.63 1.382 4.967 4.412 9.745 8.38 13.617zM7.085 39.726c.05 1.293.2 2.581.45 3.852l.677-.386a101.97 101.97 0 01-.242-8.582l-.494-.335a25.15 25.15 0 00-.391 5.45z" fill="#FFBC09"/></g><defs><clipPath id="clip0"><path fill="#fff" d="M0 0h72v72H0z"/></clipPath><filter id="filter0_d" x=".221" y="0" width="72" height="72" filterUnits="userSpaceOnUse" color-interpolation-filters="sRGB"><feFlood flood-opacity="0" result="BackgroundImageFix"/><feColorMatrix in="SourceAlpha" values="0 0 0 0 0 0 0 0 0 0 0 0 0 0 0 0 0 0 127 0"/><feOffset/><feGaussianBlur stdDeviation="2"/><feColorMatrix values="0 0 0 0 1 0 0 0 0 0.556235 0 0 0 0 0.0352941 0 0 0 0.5 0"/><feBlend in2="BackgroundImageFix" result="effect1_dropShadow"/><feBlend in="SourceGraphic" in2="effect1_dropShadow" result="shape"/></filter></defs></svg>