<svg width="240" height="240" fill="none" xmlns="http://www.w3.org/2000/svg"><g transform="scale(2)"><circle opacity=".7" cx="60" cy="60" r="60" fill="#303030"/><circle opacity=".2" cx="60" cy="60" r="37.5" stroke="#fff"/><circle opacity=".2" cx="60" cy="60" r="18.5" stroke="#fff"/><path d="M61.783 78.916c-1.19.112-2.387.112-3.576 0l.12-1.266c1.11.105 2.227.106 3.337.001l.119 1.265zm0 19c-1.19.112-2.387.112-3.576 0l.12-1.266c1.11.105 2.227.106 3.337.001l.119 1.265zm0 22c-1.19.112-2.387.112-3.576-.001l.12-1.265c1.11.105 2.227.106 3.337.001l.119 1.265z" opacity=".5" fill="#fff"/><circle opacity=".5" cx="60" cy="60" r="59" stroke="#303030" stroke-width="2"/><path d="M60 56l4 10-4-1.212L56 66l4-10z" fill="#fff"/></g></svg>