<svg width="22" height="22" viewBox="0 0 22 28" fill="none" xmlns="http://www.w3.org/2000/svg"><g clip-path="url(#clip0)" filter="url(#filter0_d)"><path fill-rule="evenodd" clip-rule="evenodd" d="M15.349 15.78a7.682 7.682 0 01-.698.38.466.466 0 00-.198.185l-1.371 2.664L12 17.88l-.998 1.131-.998-1.13-1.082 1.128-1.368-2.664a.452.452 0 00-.2-.185 8.643 8.643 0 01-.696-.38c-2.201-1.348-3.654-2.564-3.654-5.224 0-4.175 3.582-7.56 7.998-7.56 4.417 0 7.998 3.385 7.998 7.56 0 2.66-1.455 3.874-3.651 5.223zm-9.835-4.76c-.315 1.11.38 2.248 1.554 2.546 1.174.297 2.379-.36 2.694-1.47L5.514 11.02zm10.977 0l-4.248 1.075c.314 1.11 1.52 1.768 2.693 1.471 1.174-.298 1.869-1.437 1.555-2.546zM4.319 22.244c.298-.094 1.069-.083 1.759-.049l1.949-.615 1.904 1.312-2.974.938c-.514.431-1.148.924-1.468 1.025-.587.186-1.238-.054-1.453-.535a.749.749 0 01-.032-.486.924.924 0 01-.358-.384c-.216-.48.086-1.02.673-1.206zm6.697.306l-2.987-.97.038-.012-.85-.28c-.37-.124-.697-.232-.976-.324-.726.03-1.59.04-1.908-.066-.584-.193-.875-.737-.651-1.215a.939.939 0 01.366-.379.75.75 0 01.04-.486c.225-.478.88-.709 1.464-.516.296.098.859.541 1.343.954l4.148 1.373 4.174-1.317c.492-.407 1.064-.84 1.36-.935.588-.185 1.239.054 1.454.535a.751.751 0 01.032.487c.153.1.286.221.358.383.216.481-.086 1.021-.673 1.206-.32.101-1.184.08-1.91.04l-1.837.58 1.977.654c.69-.024 1.46-.025 1.757.072.584.194.875.738.65 1.215a.93.93 0 01-.365.38.75.75 0 01-.041.485c-.225.478-.88.71-1.464.516-.318-.105-.941-.608-1.448-1.045l-4.042-1.338-.01.003z" fill="#78F73A"/></g><defs><clipPath id="clip0"><path fill="#fff" transform="translate(0 3)" d="M0 0h22v22H0z"/></clipPath><filter id="filter0_d" x="-3" y="0" width="28" height="28" filterUnits="userSpaceOnUse" color-interpolation-filters="sRGB"><feFlood flood-opacity="0" result="BackgroundImageFix"/><feColorMatrix in="SourceAlpha" values="0 0 0 0 0 0 0 0 0 0 0 0 0 0 0 0 0 0 127 0"/><feOffset/><feGaussianBlur stdDeviation="1.5"/><feColorMatrix values="0 0 0 0 0 0 0 0 0 0 0 0 0 0 0 0 0 0 1 0"/><feBlend in2="BackgroundImageFix" result="effect1_dropShadow"/><feBlend in="SourceGraphic" in2="effect1_dropShadow" result="shape"/></filter></defs></svg>