<svg width="50" height="50" fill="none" xmlns="http://www.w3.org/2000/svg"><g clip-path="url(#clip0)"><path opacity=".7" d="M0 3a3 3 0 013-3h44a3 3 0 013 3v39a3 3 0 01-3 3H3a3 3 0 01-3-3V3z" fill="#2C3143"/><g opacity=".1" filter="url(#filter0_f)"><path d="M9.09 21L0 45h4.545l9.091-24H9.091z" fill="url(#paint0_radial)"/><path d="M18.182 21L9.09 45h4.545l9.091-24h-4.545z" fill="url(#paint1_radial)"/><path d="M27.273 21l-9.091 24h4.545l9.091-24h-4.545z" fill="url(#paint2_radial)"/><path d="M36.364 21l-9.091 24h4.545l9.091-24h-4.545z" fill="url(#paint3_radial)"/><path d="M45.455 21l-9.091 24h4.545L50 21h-4.545z" fill="url(#paint4_radial)"/></g><path opacity=".3" fill-rule="evenodd" clip-rule="evenodd" d="M0 44v3a3 3 0 003 3h44a3 3 0 003-3v-3a3 3 0 01-3 3H3a3 3 0 01-3-3z" fill="#fff"/><path d="M10 0h30l-2.121 2.121A3 3 0 0135.757 3H14.243a3 3 0 01-2.122-.879L10 0z" fill="#FBBC09"/><g filter="url(#filter1_d)"><path fill-rule="evenodd" clip-rule="evenodd" d="M35.503 37h-4.306a.598.598 0 01-.597-.598v-1.929a.794.794 0 01.61-.658 5.256 5.256 0 004.617-4.712.617.617 0 01.485-.503h2.09a.598.598 0 01.598.598V33.5a3.5 3.5 0 01-3.497 3.5zm.99-17.15h1.866a.64.64 0 01.641.642v5.016a.64.64 0 01-.64.642h-1.868a.64.64 0 01-.64-.642v-5.016a.64.64 0 01.64-.642zM30.6 11.472V9.684A.685.685 0 0131.284 9h4.22A3.5 3.5 0 0139 12.5v4.169a.728.728 0 01-.728.73h-1.699a.92.92 0 01-.765-.685 5.255 5.255 0 00-4.56-4.525.851.851 0 01-.648-.717zM25 31.75l-9.097-11.424 4.094-5.026h10.006l4.1 5.026L25 31.75zm4.549-15.08h-.2l-1.617 3.656L25 16.671l-2.732 3.655-1.617-3.655h-.2l-2.731 3.655.36.458h3.28l-1.636 2.053L25 29.463l5.276-6.626-1.636-2.053h3.28l.36-.458-2.732-3.655zm-1.817 4.114L25 29.465l-2.732-8.681h5.464zM22.275 9h5.45a.422.422 0 01.423.423v2.302a.424.424 0 01-.423.423h-5.45a.421.421 0 01-.423-.423V9.423A.422.422 0 0122.274 9zm-8.705 8.4h-1.985a.582.582 0 01-.585-.584V12.5A3.501 3.501 0 0114.503 9h4.343a.555.555 0 01.554.554v1.841a.87.87 0 01-.622.792 5.255 5.255 0 00-4.586 4.527.871.871 0 01-.622.686zm-.006 8.75h-1.98a.583.583 0 01-.584-.583v-5.134a.584.584 0 01.585-.583h1.979a.584.584 0 01.585.583v5.134a.584.584 0 01-.585.583zm5.836 8.367v1.87a.611.611 0 01-.61.613h-4.287A3.501 3.501 0 0111 33.5v-4.288a.611.611 0 01.61-.612h2.016a.787.787 0 01.56.632 5.252 5.252 0 004.554 4.577.87.87 0 01.66.708zM27.564 37h-5.128a.582.582 0 01-.584-.584v-1.983a.583.583 0 01.584-.583h5.128a.584.584 0 01.584.583v1.983a.584.584 0 01-.584.584z" fill="#FBBC09"/></g><g opacity=".5" filter="url(#filter2_d)"><path d="M38.958 37.452c0-2.12.447-3.697 1.34-4.732.899-1.035 2.242-1.552 4.029-1.552.61 0 1.089.036 1.435.11v1.808a5.87 5.87 0 00-1.289-.146c-.776 0-1.411.117-1.904.352a2.368 2.368 0 00-1.099 1.04c-.244.459-.388 1.11-.432 1.955h.095c.484-.83 1.258-1.245 2.322-1.245.957 0 1.707.3 2.249.9.542.602.813 1.431.813 2.491 0 1.143-.323 2.048-.967 2.717-.645.665-1.538.997-2.68.997-.792 0-1.483-.184-2.074-.55-.586-.366-1.04-.9-1.362-1.604-.317-.703-.476-1.55-.476-2.541zm3.867 2.885c.484 0 .855-.16 1.113-.483.26-.327.389-.791.389-1.392 0-.522-.122-.932-.367-1.23-.239-.303-.603-.454-1.09-.454-.46 0-.853.149-1.18.447-.322.297-.483.644-.483 1.04 0 .58.15 1.071.454 1.472.307.4.695.6 1.164.6z" fill="#fff"/></g></g><defs><radialGradient id="paint0_radial" cx="0" cy="0" r="1" gradientUnits="userSpaceOnUse" gradientTransform="matrix(25 0 0 24 25 45)"><stop stop-color="#FBBC09"/><stop offset="1" stop-color="#FBBC09" stop-opacity="0"/></radialGradient><radialGradient id="paint1_radial" cx="0" cy="0" r="1" gradientUnits="userSpaceOnUse" gradientTransform="matrix(25 0 0 24 25 45)"><stop stop-color="#FBBC09"/><stop offset="1" stop-color="#FBBC09" stop-opacity="0"/></radialGradient><radialGradient id="paint2_radial" cx="0" cy="0" r="1" gradientUnits="userSpaceOnUse" gradientTransform="matrix(25 0 0 24 25 45)"><stop stop-color="#FBBC09"/><stop offset="1" stop-color="#FBBC09" stop-opacity="0"/></radialGradient><radialGradient id="paint3_radial" cx="0" cy="0" r="1" gradientUnits="userSpaceOnUse" gradientTransform="matrix(25 0 0 24 25 45)"><stop stop-color="#FBBC09"/><stop offset="1" stop-color="#FBBC09" stop-opacity="0"/></radialGradient><radialGradient id="paint4_radial" cx="0" cy="0" r="1" gradientUnits="userSpaceOnUse" gradientTransform="matrix(25 0 0 24 25 45)"><stop stop-color="#FBBC09"/><stop offset="1" stop-color="#FBBC09" stop-opacity="0"/></radialGradient><filter id="filter0_f" x="-2" y="19" width="54" height="28" filterUnits="userSpaceOnUse" color-interpolation-filters="sRGB"><feFlood flood-opacity="0" result="BackgroundImageFix"/><feBlend in="SourceGraphic" in2="BackgroundImageFix" result="shape"/><feGaussianBlur stdDeviation="1" result="effect1_foregroundBlur"/></filter><filter id="filter1_d" x=".182" y="-1.818" width="49.635" height="49.635" filterUnits="userSpaceOnUse" color-interpolation-filters="sRGB"><feFlood flood-opacity="0" result="BackgroundImageFix"/><feColorMatrix in="SourceAlpha" values="0 0 0 0 0 0 0 0 0 0 0 0 0 0 0 0 0 0 127 0"/><feOffset/><feGaussianBlur stdDeviation="5.409"/><feColorMatrix values="0 0 0 0 1 0 0 0 0 0.556235 0 0 0 0 0.0352941 0 0 0 0.5 0"/><feBlend in2="BackgroundImageFix" result="effect1_dropShadow"/><feBlend in="SourceGraphic" in2="effect1_dropShadow" result="shape"/></filter><filter id="filter2_d" x="38.958" y="31.168" width="9.559" height="12.979" filterUnits="userSpaceOnUse" color-interpolation-filters="sRGB"><feFlood flood-opacity="0" result="BackgroundImageFix"/><feColorMatrix in="SourceAlpha" values="0 0 0 0 0 0 0 0 0 0 0 0 0 0 0 0 0 0 127 0"/><feOffset dx="1" dy="1"/><feGaussianBlur stdDeviation=".5"/><feColorMatrix values="0 0 0 0 0 0 0 0 0 0 0 0 0 0 0 0 0 0 0.5 0"/><feBlend in2="BackgroundImageFix" result="effect1_dropShadow"/><feBlend in="SourceGraphic" in2="effect1_dropShadow" result="shape"/></filter><clipPath id="clip0"><path fill="#fff" d="M0 0h50v50H0z"/></clipPath></defs></svg>