<svg width="50" height="50" fill="none" xmlns="http://www.w3.org/2000/svg"><g clip-path="url(#clip0)"><path opacity=".7" d="M0 3a3 3 0 013-3h44a3 3 0 013 3v39a3 3 0 01-3 3H3a3 3 0 01-3-3V3z" fill="#2C3143"/><g opacity=".1" filter="url(#filter0_f)"><path d="M9.09 21L0 45h4.545l9.091-24H9.091z" fill="url(#paint0_radial)"/><path d="M18.182 21L9.09 45h4.545l9.091-24h-4.545z" fill="url(#paint1_radial)"/><path d="M27.273 21l-9.091 24h4.545l9.091-24h-4.545z" fill="url(#paint2_radial)"/><path d="M36.364 21l-9.091 24h4.545l9.091-24h-4.545z" fill="url(#paint3_radial)"/><path d="M45.455 21l-9.091 24h4.545L50 21h-4.545z" fill="url(#paint4_radial)"/></g><path opacity=".3" fill-rule="evenodd" clip-rule="evenodd" d="M0 44v3a3 3 0 003 3h44a3 3 0 003-3v-3a3 3 0 01-3 3H3a3 3 0 01-3-3z" fill="#fff"/><path d="M10 0h30l-2.121 2.121A3 3 0 0135.757 3H14.243a3 3 0 01-2.122-.879L10 0z" fill="#39B54A"/><g filter="url(#filter1_d)"><path fill-rule="evenodd" clip-rule="evenodd" d="M30.624 38H19.376L10 28.625v-11.25L19.376 8h11.248L40 17.375v11.25L30.624 38zm5.382-20.26l-5.747-5.745-1.977.883h-6.564l-1.977-.883-5.747 5.744.883 1.98v6.562l-.883 1.98 5.747 5.744 1.977-.883h6.564l1.977.883 5.747-5.744-.883-1.98V19.72l.883-1.98zM22.888 28.624l-3.512-3.516V20.89l3.512-3.516h4.224l3.512 3.516v4.218l-3.512 3.516h-4.224z" fill="#39B54A"/></g><g opacity=".5" filter="url(#filter2_d)"><path d="M42.928 35.16c1.035 0 1.858.29 2.468.87.615.582.923 1.378.923 2.389 0 1.196-.369 2.116-1.106 2.76-.737.645-1.792.968-3.164.968-1.192 0-2.154-.193-2.886-.58v-1.955a6.11 6.11 0 001.348.506c.512.127.998.19 1.457.19 1.382 0 2.073-.566 2.073-1.7 0-1.078-.715-1.618-2.146-1.618-.259 0-.544.027-.857.08a5.907 5.907 0 00-.762.162l-.9-.483.402-5.457h5.808v1.919h-3.823l-.198 2.102.257-.051a5.045 5.045 0 011.106-.103z" fill="#fff"/></g></g><defs><radialGradient id="paint0_radial" cx="0" cy="0" r="1" gradientUnits="userSpaceOnUse" gradientTransform="matrix(25 0 0 24 25 45)"><stop stop-color="#00FF85"/><stop offset="1" stop-color="#CF0" stop-opacity="0"/></radialGradient><radialGradient id="paint1_radial" cx="0" cy="0" r="1" gradientUnits="userSpaceOnUse" gradientTransform="matrix(25 0 0 24 25 45)"><stop stop-color="#00FF85"/><stop offset="1" stop-color="#CF0" stop-opacity="0"/></radialGradient><radialGradient id="paint2_radial" cx="0" cy="0" r="1" gradientUnits="userSpaceOnUse" gradientTransform="matrix(25 0 0 24 25 45)"><stop stop-color="#00FF85"/><stop offset="1" stop-color="#CF0" stop-opacity="0"/></radialGradient><radialGradient id="paint3_radial" cx="0" cy="0" r="1" gradientUnits="userSpaceOnUse" gradientTransform="matrix(25 0 0 24 25 45)"><stop stop-color="#00FF85"/><stop offset="1" stop-color="#CF0" stop-opacity="0"/></radialGradient><radialGradient id="paint4_radial" cx="0" cy="0" r="1" gradientUnits="userSpaceOnUse" gradientTransform="matrix(25 0 0 24 25 45)"><stop stop-color="#00FF85"/><stop offset="1" stop-color="#CF0" stop-opacity="0"/></radialGradient><filter id="filter0_f" x="-2" y="19" width="54" height="28" filterUnits="userSpaceOnUse" color-interpolation-filters="sRGB"><feFlood flood-opacity="0" result="BackgroundImageFix"/><feBlend in="SourceGraphic" in2="BackgroundImageFix" result="shape"/><feGaussianBlur stdDeviation="1" result="effect1_foregroundBlur"/></filter><filter id="filter1_d" x="4" y="2" width="42" height="42" filterUnits="userSpaceOnUse" color-interpolation-filters="sRGB"><feFlood flood-opacity="0" result="BackgroundImageFix"/><feColorMatrix in="SourceAlpha" values="0 0 0 0 0 0 0 0 0 0 0 0 0 0 0 0 0 0 127 0"/><feOffset/><feGaussianBlur stdDeviation="3"/><feColorMatrix values="0 0 0 0 0.470588 0 0 0 0 0.968627 0 0 0 0 0.227451 0 0 0 0.5 0"/><feBlend in2="BackgroundImageFix" result="effect1_dropShadow"/><feBlend in="SourceGraphic" in2="effect1_dropShadow" result="shape"/></filter><filter id="filter2_d" x="39.163" y="31.293" width="9.156" height="12.854" filterUnits="userSpaceOnUse" color-interpolation-filters="sRGB"><feFlood flood-opacity="0" result="BackgroundImageFix"/><feColorMatrix in="SourceAlpha" values="0 0 0 0 0 0 0 0 0 0 0 0 0 0 0 0 0 0 127 0"/><feOffset dx="1" dy="1"/><feGaussianBlur stdDeviation=".5"/><feColorMatrix values="0 0 0 0 0 0 0 0 0 0 0 0 0 0 0 0 0 0 0.5 0"/><feBlend in2="BackgroundImageFix" result="effect1_dropShadow"/><feBlend in="SourceGraphic" in2="effect1_dropShadow" result="shape"/></filter><clipPath id="clip0"><path fill="#fff" d="M0 0h50v50H0z"/></clipPath></defs></svg>