<svg width="50" height="50" fill="none" xmlns="http://www.w3.org/2000/svg"><g clip-path="url(#clip0)"><path opacity=".7" d="M0 3a3 3 0 013-3h44a3 3 0 013 3v39a3 3 0 01-3 3H3a3 3 0 01-3-3V3z" fill="#2C3143"/><g opacity=".1" filter="url(#filter0_f)"><path d="M9.09 21L0 45h4.545l9.091-24H9.091z" fill="url(#paint0_radial)"/><path d="M18.182 21L9.09 45h4.545l9.091-24h-4.545z" fill="url(#paint1_radial)"/><path d="M27.273 21l-9.091 24h4.545l9.091-24h-4.545z" fill="url(#paint2_radial)"/><path d="M36.364 21l-9.091 24h4.545l9.091-24h-4.545z" fill="url(#paint3_radial)"/><path d="M45.455 21l-9.091 24h4.545L50 21h-4.545z" fill="url(#paint4_radial)"/></g><path opacity=".3" fill-rule="evenodd" clip-rule="evenodd" d="M0 44v3a3 3 0 003 3h44a3 3 0 003-3v-3a3 3 0 01-3 3H3a3 3 0 01-3-3z" fill="#fff"/><path d="M10 0h30l-2.121 2.121A3 3 0 0135.757 3H14.243a3 3 0 01-2.122-.879L10 0z" fill="#BFE704"/><g filter="url(#filter1_d)"><path fill-rule="evenodd" clip-rule="evenodd" d="M39.63 17.297s-1.315 4.375-3.013 6.077a8.114 8.114 0 01-8.624 1.844L16.287 36.92A3.681 3.681 0 0110 34.317a3.684 3.684 0 011.078-2.605l11.707-11.706a8.11 8.11 0 011.845-8.619c1.768-1.771 5.789-3.026 5.789-3.026L32.704 8l1.047 1.043-4.692 4.69v2.084l3.128 3.128h2.081l4.692-4.69L40 15.298l-.37 2zM12.904 33.015a1.473 1.473 0 102.08 0 1.464 1.464 0 00-2.08 0zm10.94-10.943l-8.598 8.598 2.088 2.085 8.598-8.599-2.088-2.084z" fill="#BFE704"/></g><g opacity=".5" filter="url(#filter2_d)"><path d="M44.627 42h-2.263v-6.196l.022-1.018.036-1.114c-.376.376-.637.623-.783.74l-1.23.989-1.092-1.362 3.45-2.747h1.86V42z" fill="#fff"/></g></g><defs><radialGradient id="paint0_radial" cx="0" cy="0" r="1" gradientUnits="userSpaceOnUse" gradientTransform="matrix(25 0 0 24 25 45)"><stop stop-color="#00FF85"/><stop offset="1" stop-color="#CF0" stop-opacity="0"/></radialGradient><radialGradient id="paint1_radial" cx="0" cy="0" r="1" gradientUnits="userSpaceOnUse" gradientTransform="matrix(25 0 0 24 25 45)"><stop stop-color="#00FF85"/><stop offset="1" stop-color="#CF0" stop-opacity="0"/></radialGradient><radialGradient id="paint2_radial" cx="0" cy="0" r="1" gradientUnits="userSpaceOnUse" gradientTransform="matrix(25 0 0 24 25 45)"><stop stop-color="#00FF85"/><stop offset="1" stop-color="#CF0" stop-opacity="0"/></radialGradient><radialGradient id="paint3_radial" cx="0" cy="0" r="1" gradientUnits="userSpaceOnUse" gradientTransform="matrix(25 0 0 24 25 45)"><stop stop-color="#00FF85"/><stop offset="1" stop-color="#CF0" stop-opacity="0"/></radialGradient><radialGradient id="paint4_radial" cx="0" cy="0" r="1" gradientUnits="userSpaceOnUse" gradientTransform="matrix(25 0 0 24 25 45)"><stop stop-color="#00FF85"/><stop offset="1" stop-color="#CF0" stop-opacity="0"/></radialGradient><filter id="filter0_f" x="-2" y="19" width="54" height="28" filterUnits="userSpaceOnUse" color-interpolation-filters="sRGB"><feFlood flood-opacity="0" result="BackgroundImageFix"/><feBlend in="SourceGraphic" in2="BackgroundImageFix" result="shape"/><feGaussianBlur stdDeviation="1" result="effect1_foregroundBlur"/></filter><filter id="filter1_d" x="4" y="2" width="42" height="42" filterUnits="userSpaceOnUse" color-interpolation-filters="sRGB"><feFlood flood-opacity="0" result="BackgroundImageFix"/><feColorMatrix in="SourceAlpha" values="0 0 0 0 0 0 0 0 0 0 0 0 0 0 0 0 0 0 127 0"/><feOffset/><feGaussianBlur stdDeviation="3"/><feColorMatrix values="0 0 0 0 0.470588 0 0 0 0 0.968627 0 0 0 0 0.227451 0 0 0 0.5 0"/><feBlend in2="BackgroundImageFix" result="effect1_dropShadow"/><feBlend in="SourceGraphic" in2="effect1_dropShadow" result="shape"/></filter><filter id="filter2_d" x="39.316" y="31.293" width="7.31" height="12.708" filterUnits="userSpaceOnUse" color-interpolation-filters="sRGB"><feFlood flood-opacity="0" result="BackgroundImageFix"/><feColorMatrix in="SourceAlpha" values="0 0 0 0 0 0 0 0 0 0 0 0 0 0 0 0 0 0 127 0"/><feOffset dx="1" dy="1"/><feGaussianBlur stdDeviation=".5"/><feColorMatrix values="0 0 0 0 0 0 0 0 0 0 0 0 0 0 0 0 0 0 0.5 0"/><feBlend in2="BackgroundImageFix" result="effect1_dropShadow"/><feBlend in="SourceGraphic" in2="effect1_dropShadow" result="shape"/></filter><clipPath id="clip0"><path fill="#fff" d="M0 0h50v50H0z"/></clipPath></defs></svg>