<svg width="32" height="32" fill="none" xmlns="http://www.w3.org/2000/svg"><g filter="url(#filter0_d)" clip-path="url(#clip0)"><path fill-rule="evenodd" clip-rule="evenodd" d="M16.323 29.333c-.064 0-1.275-.03-1.68-.09C9.559 28.667 6 25.188 6 20.533v-.236a9.146 9.146 0 012.737-6.95 4.597 4.597 0 002.703 3.438 5.402 5.402 0 005.405-2.044c2.744-3.433.518-9.97-2.069-12.076l.848.6c.304.215 7.477 5.366 9.885 12.62l.016.063c.25 1.204.409 2.424.475 3.652a9.688 9.688 0 01-9.677 9.733zm-.187 0h.187a1.87 1.87 0 01-.19 0h.003z" fill="#FF3600"/></g><defs><clipPath id="clip0"><path fill="#fff" d="M0 0h32v32H0z"/></clipPath><filter id="filter0_d" x="2.991" y="-.335" width="26.01" height="32.67" filterUnits="userSpaceOnUse" color-interpolation-filters="sRGB"><feFlood flood-opacity="0" result="BackgroundImageFix"/><feColorMatrix in="SourceAlpha" values="0 0 0 0 0 0 0 0 0 0 0 0 0 0 0 0 0 0 127 0"/><feOffset/><feGaussianBlur stdDeviation="1.5"/><feColorMatrix values="0 0 0 0 0 0 0 0 0 0 0 0 0 0 0 0 0 0 1 0"/><feBlend in2="BackgroundImageFix" result="effect1_dropShadow"/><feBlend in="SourceGraphic" in2="effect1_dropShadow" result="shape"/></filter></defs></svg>