<svg width="32" height="32" fill="none" xmlns="http://www.w3.org/2000/svg"><g filter="url(#filter0_d)"><path fill-rule="evenodd" clip-rule="evenodd" d="M28 17.843l-1.846 1.846-1.727-1.726h-3.695l5.422 5.422-2.769 2.77-5.426-5.427v3.692l1.733 1.734L17.846 28l-1.845-1.846L14.155 28l-1.847-1.846 1.734-1.734v-3.692l-5.426 5.426-2.769-2.769 5.43-5.43H7.589l-1.742 1.74L4 17.849l1.847-1.846L4 14.157l1.847-1.846 1.726 1.726h3.697L5.847 8.615l2.769-2.77 5.426 5.427V7.579l-1.734-1.733L14.155 4 16 5.846 17.846 4l1.846 1.846-1.733 1.733v3.693l5.426-5.426 2.77 2.769-5.432 5.43h3.69l1.741-1.74L28 14.151l-1.846 1.846L28 17.843z" fill="#0096FF"/></g><defs><filter id="filter0_d" x="1" y="1" width="30" height="30" filterUnits="userSpaceOnUse" color-interpolation-filters="sRGB"><feFlood flood-opacity="0" result="BackgroundImageFix"/><feColorMatrix in="SourceAlpha" values="0 0 0 0 0 0 0 0 0 0 0 0 0 0 0 0 0 0 127 0"/><feOffset/><feGaussianBlur stdDeviation="1.5"/><feColorMatrix values="0 0 0 0 0 0 0 0 0 0 0 0 0 0 0 0 0 0 1 0"/><feBlend in2="BackgroundImageFix" result="effect1_dropShadow"/><feBlend in="SourceGraphic" in2="effect1_dropShadow" result="shape"/></filter></defs></svg>