<svg width="32" height="32" fill="none" xmlns="http://www.w3.org/2000/svg"><g filter="url(#filter0_d)" fill="#00FFA2" clip-path="url(#clip0)"><path d="M2.667 27.533l.533 1.6 1.6.534 6.95-6.345c4.385 3.739 9.225 5.103 11.321 3.007 1.659-1.659 1.15-5.037-.988-8.548l-1.942 2.72c.225.46.41.902.551 1.32.561 1.655.29 2.268.241 2.37-.102.05-.715.32-2.37-.24-1.78-.605-4.002-1.977-6.103-4.078-2.1-2.1-3.473-4.322-4.077-6.103-.561-1.654-.29-2.267-.24-2.37.102-.05.715-.32 2.37.241.418.142.86.326 1.32.552l2.72-1.943c-3.512-2.138-6.89-2.646-8.549-.988-2.095 2.096-.731 6.937 3.008 11.322l-6.345 6.95z"/><path d="M14.4 17.933a18.16 18.16 0 001.649 1.463l13.284-12.13-1.066-3.2L25.067 3l-12.13 13.285c.43.548.917 1.102 1.463 1.648z"/></g><defs><clipPath id="clip0"><path fill="#fff" d="M0 .333h32v32H0z"/></clipPath><filter id="filter0_d" x="-.333" y="0" width="32.667" height="32.667" filterUnits="userSpaceOnUse" color-interpolation-filters="sRGB"><feFlood flood-opacity="0" result="BackgroundImageFix"/><feColorMatrix in="SourceAlpha" values="0 0 0 0 0 0 0 0 0 0 0 0 0 0 0 0 0 0 127 0"/><feOffset/><feGaussianBlur stdDeviation="1.5"/><feColorMatrix values="0 0 0 0 0 0 0 0 0 0 0 0 0 0 0 0 0 0 1 0"/><feBlend in2="BackgroundImageFix" result="effect1_dropShadow"/><feBlend in="SourceGraphic" in2="effect1_dropShadow" result="shape"/></filter></defs></svg>