<svg width="32" height="32" fill="none" xmlns="http://www.w3.org/2000/svg"><g filter="url(#filter0_d)"><path fill-rule="evenodd" clip-rule="evenodd" d="M21.144 28H10.857L4 21.144V10.857L10.857 4h10.287L28 10.857v10.287L21.144 28zm-10.287-3.428l1.716-1.714-3.43-3.43-1.714 1.716 3.428 3.428zm0-17.143L7.43 10.857l1.714 1.716 3.43-3.43-1.716-1.714zM12.914 8.8L8.8 12.914v6.173l4.114 4.114h6.173l4.114-4.114v-6.173L19.087 8.8h-6.173zm8.23-1.37l-1.715 1.713 3.429 3.43 1.714-1.716-3.428-3.428zm1.714 11.999l-3.43 3.429 1.716 1.714 3.428-3.428-1.714-1.715zm-8.571 0l-1.714-1.714v-3.428l2.926-1.714h1.003l2.927 1.714v3.428l-1.714 1.714h-3.428z" fill="#13B174"/></g><defs><filter id="filter0_d" x="1" y="1" width="30" height="30" filterUnits="userSpaceOnUse" color-interpolation-filters="sRGB"><feFlood flood-opacity="0" result="BackgroundImageFix"/><feColorMatrix in="SourceAlpha" values="0 0 0 0 0 0 0 0 0 0 0 0 0 0 0 0 0 0 127 0"/><feOffset/><feGaussianBlur stdDeviation="1.5"/><feColorMatrix values="0 0 0 0 0 0 0 0 0 0 0 0 0 0 0 0 0 0 1 0"/><feBlend in2="BackgroundImageFix" result="effect1_dropShadow"/><feBlend in="SourceGraphic" in2="effect1_dropShadow" result="shape"/></filter></defs></svg>