<svg width="32" height="32" fill="none" xmlns="http://www.w3.org/2000/svg"><g filter="url(#filter0_d)" clip-path="url(#clip0)"><path fill-rule="evenodd" clip-rule="evenodd" d="M29.333 18.239h-2.069a11.427 11.427 0 01-9.36 9.352v2.076h-3.81V27.59a11.428 11.428 0 01-9.358-9.352h-2.07v-3.811h2.07a11.428 11.428 0 019.359-9.352V3h3.809v2.076a11.428 11.428 0 019.36 9.352h2.07v3.81zm-5.001 0h-6.428v6.446a8.567 8.567 0 006.428-6.446zm-10.237 6.446V18.24H7.668a8.568 8.568 0 006.427 6.446zM7.668 14.428h6.427V7.981a8.567 8.567 0 00-6.427 6.447zm10.236-6.447v6.447h6.428a8.564 8.564 0 00-6.428-6.447z" fill="#FF3D3D"/></g><defs><clipPath id="clip0"><path fill="#fff" d="M0 .333h32v32H0z"/></clipPath><filter id="filter0_d" x="-.333" y="0" width="32.667" height="32.667" filterUnits="userSpaceOnUse" color-interpolation-filters="sRGB"><feFlood flood-opacity="0" result="BackgroundImageFix"/><feColorMatrix in="SourceAlpha" values="0 0 0 0 0 0 0 0 0 0 0 0 0 0 0 0 0 0 127 0"/><feOffset/><feGaussianBlur stdDeviation="1.5"/><feColorMatrix values="0 0 0 0 0 0 0 0 0 0 0 0 0 0 0 0 0 0 1 0"/><feBlend in2="BackgroundImageFix" result="effect1_dropShadow"/><feBlend in="SourceGraphic" in2="effect1_dropShadow" result="shape"/></filter></defs></svg>