<svg width="20" height="20" fill="none" xmlns="http://www.w3.org/2000/svg"><g filter="url(#filter0_dd)"><path fill-rule="evenodd" clip-rule="evenodd" d="M14.654 12.09c-1.44 2.911-4.66 4.785-4.66 4.785s-3.21-1.811-4.577-4.758c-1.41-3.04-.98-7.219-.98-7.219S6.256 3.75 9.993 3.75c3.719 0 5.556 1.148 5.556 1.148-.008-.002.253 4.868-.896 7.193zm-.41-6.207s-1.53-.82-4.242-.82c-2.721 0-4.257.82-4.257.82s-.106 3.534.923 5.738c.997 2.137 3.334 3.45 3.334 3.45a8.806 8.806 0 003.423-3.446c1.16-2.1.813-5.745.818-5.742zm-7.065 5.122c-.69-1.79-.613-4.463-.613-4.463s1.24-.659 3.436-.659a9.689 9.689 0 012.066.214L7.18 11.005zm6.225-3.46c-.046 1.14-.184 2.95-.613 3.77-.875 1.68-2.789 2.77-2.789 2.77a8.02 8.02 0 01-1.73-1.388l5.132-5.152z" fill="#EADC99"/></g><defs><filter id="filter0_dd" x="-3" y="-3" width="26" height="26" filterUnits="userSpaceOnUse" color-interpolation-filters="sRGB"><feFlood flood-opacity="0" result="BackgroundImageFix"/><feColorMatrix in="SourceAlpha" values="0 0 0 0 0 0 0 0 0 0 0 0 0 0 0 0 0 0 127 0"/><feOffset/><feGaussianBlur stdDeviation="1.5"/><feColorMatrix values="0 0 0 0 0 0 0 0 0 0 0 0 0 0 0 0 0 0 1 0"/><feBlend in2="BackgroundImageFix" result="effect1_dropShadow"/><feColorMatrix in="SourceAlpha" values="0 0 0 0 0 0 0 0 0 0 0 0 0 0 0 0 0 0 127 0"/><feOffset/><feGaussianBlur stdDeviation="1.5"/><feColorMatrix values="0 0 0 0 0 0 0 0 0 0 0 0 0 0 0 0 0 0 1 0"/><feBlend in2="effect1_dropShadow" result="effect2_dropShadow"/><feBlend in="SourceGraphic" in2="effect2_dropShadow" result="shape"/></filter></defs></svg>