<svg width="20" height="20" fill="none" xmlns="http://www.w3.org/2000/svg"><g filter="url(#filter0_dd)"><path fill-rule="evenodd" clip-rule="evenodd" d="M4.953 14.881l.83-9.47 1.33 3.655 1.495-2.658v2.326L16.25 3.75l-4.984 7.642h2.16l-2.659 1.33 3.655 1.66-9.47.5zm1.163-.997l3.488-.332-1.329-.332 1.994-1.33h-.997l3.157-4.319-4.486 2.99-.166-.83-.83 1.828-.665-1.163-.166 3.488zM3.125 8.402L4.288 9.73v3.157L3.125 8.402zm3.987 7.144l3.157.166 1.163 1.163-4.32-1.33z" fill="#FF3131"/></g><defs><filter id="filter0_dd" x="-3" y="-3" width="26" height="26" filterUnits="userSpaceOnUse" color-interpolation-filters="sRGB"><feFlood flood-opacity="0" result="BackgroundImageFix"/><feColorMatrix in="SourceAlpha" values="0 0 0 0 0 0 0 0 0 0 0 0 0 0 0 0 0 0 127 0"/><feOffset/><feGaussianBlur stdDeviation="1.5"/><feColorMatrix values="0 0 0 0 0 0 0 0 0 0 0 0 0 0 0 0 0 0 1 0"/><feBlend in2="BackgroundImageFix" result="effect1_dropShadow"/><feColorMatrix in="SourceAlpha" values="0 0 0 0 0 0 0 0 0 0 0 0 0 0 0 0 0 0 127 0"/><feOffset/><feGaussianBlur stdDeviation="1.5"/><feColorMatrix values="0 0 0 0 0 0 0 0 0 0 0 0 0 0 0 0 0 0 1 0"/><feBlend in2="effect1_dropShadow" result="effect2_dropShadow"/><feBlend in="SourceGraphic" in2="effect2_dropShadow" result="shape"/></filter></defs></svg>