<svg width="20" height="20" fill="none" xmlns="http://www.w3.org/2000/svg"><g filter="url(#filter0_dd)"><path fill-rule="evenodd" clip-rule="evenodd" d="M11.347 6.875v1.25l.478.236 1.25-.59.45-1.712 1.09-.634.097 1.395 1.091-.634.964 1.616-1.091.634 1.199.753-1.103.64-1.733-.442-1.11.523v.805l1.112.56 1.74-.42 1.081.65-1.198.744 1.081.65-.987 1.601-1.081-.65-.106 1.4-1.093-.656-.424-1.718-1.232-.61-.475.234v1.25L12.613 15v1.25l-1.266-.625v1.25h-1.9v-1.25l-1.266.638V15l1.267-1.25V12.5l-.497-.245-1.38.683-.424 1.718-1.093.656-.106-1.4-1.081.65-.987-1.602 1.081-.65-1.198-.742 1.081-.65 1.74.418 1.28-.644v-.64L6.587 9.45l-1.733.443-1.103-.64 1.2-.754-1.092-.634.964-1.616 1.09.634.097-1.394 1.091.634.45 1.711 1.273.601.625-.256V6.875L8.18 5.625v-1.25L9.448 5V3.75h1.899V5l1.266-.638v1.263l-1.266 1.25zm-1.9 3.75V10l.634-.625h.633l.633.625v.625l-.633.625h-.633l-.633-.625z" fill="#0096FF"/></g><defs><filter id="filter0_dd" x="-3" y="-3" width="26" height="26" filterUnits="userSpaceOnUse" color-interpolation-filters="sRGB"><feFlood flood-opacity="0" result="BackgroundImageFix"/><feColorMatrix in="SourceAlpha" values="0 0 0 0 0 0 0 0 0 0 0 0 0 0 0 0 0 0 127 0"/><feOffset/><feGaussianBlur stdDeviation="1.5"/><feColorMatrix values="0 0 0 0 0 0 0 0 0 0 0 0 0 0 0 0 0 0 1 0"/><feBlend in2="BackgroundImageFix" result="effect1_dropShadow"/><feColorMatrix in="SourceAlpha" values="0 0 0 0 0 0 0 0 0 0 0 0 0 0 0 0 0 0 127 0"/><feOffset/><feGaussianBlur stdDeviation="1.5"/><feColorMatrix values="0 0 0 0 0 0 0 0 0 0 0 0 0 0 0 0 0 0 1 0"/><feBlend in2="effect1_dropShadow" result="effect2_dropShadow"/><feBlend in="SourceGraphic" in2="effect2_dropShadow" result="shape"/></filter></defs></svg>