<svg width="20" height="20" fill="none" xmlns="http://www.w3.org/2000/svg"><g filter="url(#filter0_dd)"><path fill-rule="evenodd" clip-rule="evenodd" d="M11.92 5.83l-.006-.01L9 7.313l2.035-2.907-.59-.875a.598.598 0 00-1.014 0L7.574 6.487a.598.598 0 01-.36.262l-3.386.852a.598.598 0 00-.313.964l.082.098 2.226-.948L4.375 9.56l1.378 1.684c.1.118.148.27.138.424l-.068 1.002-1.51 2.455 1.425-1.2 4.512-3.8-1.06-.486-2.377.486 1.25-.937 3.856-3.358zm4.58.232L15.484 7.46l.563.142a.598.598 0 01.313.964l-2.238 2.68a.599.599 0 00-.138.423l.236 3.484c.03.44-.41.76-.82.595l-2.54-1.02.953-1.165-2.946 1.225-2.392.96a.598.598 0 01-.82-.595l.06-.886 6.833-4.188 2.077-1.203-3.121-.134L16.5 6.063z" fill="#FF3D9A"/></g><defs><filter id="filter0_dd" x="-3" y="-3" width="26" height="26" filterUnits="userSpaceOnUse" color-interpolation-filters="sRGB"><feFlood flood-opacity="0" result="BackgroundImageFix"/><feColorMatrix in="SourceAlpha" values="0 0 0 0 0 0 0 0 0 0 0 0 0 0 0 0 0 0 127 0"/><feOffset/><feGaussianBlur stdDeviation="1.5"/><feColorMatrix values="0 0 0 0 0 0 0 0 0 0 0 0 0 0 0 0 0 0 1 0"/><feBlend in2="BackgroundImageFix" result="effect1_dropShadow"/><feColorMatrix in="SourceAlpha" values="0 0 0 0 0 0 0 0 0 0 0 0 0 0 0 0 0 0 127 0"/><feOffset/><feGaussianBlur stdDeviation="1.5"/><feColorMatrix values="0 0 0 0 0 0 0 0 0 0 0 0 0 0 0 0 0 0 1 0"/><feBlend in2="effect1_dropShadow" result="effect2_dropShadow"/><feBlend in="SourceGraphic" in2="effect2_dropShadow" result="shape"/></filter></defs></svg>