<svg width="32" height="32" fill="none" xmlns="http://www.w3.org/2000/svg"><g filter="url(#filter0_d)" clip-path="url(#clip0)"><path fill-rule="evenodd" clip-rule="evenodd" d="M28.778 10.492c0 .113-.008.224-.022.333.146.267.396.913.22 1.363.226.325.357.713.357 1.129 0 1.145-.994 2.074-2.222 2.074a2.32 2.32 0 01-1.232-.348 2.56 2.56 0 01-.12 1.585c-.536 1.355-1.898 2.122-3.509 2.319-.476.058-2.22-1.11-2.22-.207l-.697 3.93-.31 2.445c.386.005 1.494 2.031 1.494 2.338.33.107.725.253 1.13.428a.786.786 0 01.263-.046c.35 0 .65.231.774.558l.06.035c.95.556.277 1.185.277 1.185s-.242.173-1.076.332a.79.79 0 01-1.005.143 25.67 25.67 0 01-2.641.118c-1.057 0-6.486-.044-7.136-.108a2.879 2.879 0 01-.795.108c-.92 0-1.667-.398-1.667-.89 0-.071.016-.141.047-.208 0-.206.114-.45.509-.68l.06-.035a.836.836 0 01.773-.558.77.77 0 01.263.046l.056-.024a.84.84 0 01.792-.614c.087 0 .278-.5.463-.985.184-.481.362-.948.428-.9v-2.183l-.425-4.435c-.343.29-.654.27-1.181.236-.207-.014-.448-.03-.736-.03-1.604 0-2.973-.963-3.509-2.318l-.12-1.585c-.353.22-.776.348-1.232.348-1.227 0-2.222-.929-2.222-2.074 0-.537.218-1.027.577-1.395-.457-.275-.19-.846 0-1.097a2.527 2.527 0 01-.022-.333c0-1.396 1.144-2.528 2.556-2.528h.056c.054.002.106.004.159.009A3.832 3.832 0 019.61 5.435c.86 0 1.653.28 2.292.752A4.475 4.475 0 0116 3.54a4.475 4.475 0 014.097 2.648 3.844 3.844 0 012.292-.752 3.832 3.832 0 013.618 2.538 2.619 2.619 0 01.165-.009h.05c1.412 0 2.556 1.132 2.556 2.528z" fill="#FF2A00"/></g><defs><clipPath id="clip0"><path fill="#fff" d="M0 .872h32v32H0z"/></clipPath><filter id="filter0_d" x="-.333" y=".539" width="32.667" height="32.667" filterUnits="userSpaceOnUse" color-interpolation-filters="sRGB"><feFlood flood-opacity="0" result="BackgroundImageFix"/><feColorMatrix in="SourceAlpha" values="0 0 0 0 0 0 0 0 0 0 0 0 0 0 0 0 0 0 127 0"/><feOffset/><feGaussianBlur stdDeviation="1.5"/><feColorMatrix values="0 0 0 0 0 0 0 0 0 0 0 0 0 0 0 0 0 0 1 0"/><feBlend in2="BackgroundImageFix" result="effect1_dropShadow"/><feBlend in="SourceGraphic" in2="effect1_dropShadow" result="shape"/></filter></defs></svg>