<svg width="20" height="20" fill="none" xmlns="http://www.w3.org/2000/svg"><g filter="url(#filter0_dd)"><path d="M15.288 14.238c-.747 1.39-3.267 2.392-3.267 2.392l.246-.92s.192-.65 0-.982c-.204-.352-.924-.49-.924-.49s.098.403 0 .674c-.099.272-.494.552-.494.552s-.545-1.09-.554-1.84c-.008-.587.308-1.472.308-1.472s-1.075.443-1.541.982c-.45.52-.65.914-.74 1.594-.114.858.555 2.147.555 2.147s-2.708-.788-3.637-2.147c-.651-.952-.837-1.67-.863-2.82-.028-1.244.27-1.973.863-3.067.646-1.195 2.342-2.576 2.342-2.576l.185 1.84s1.189-.983 1.603-1.84c.434-.898.432-2.515.432-2.515s2.29.733 3.082 1.901c.64.944.753 1.683.74 2.822-.016 1.34-1.11 3.25-1.11 3.25.578-.287.997-.309 1.48-.736.564-.5.986-1.656.986-1.656s1.217 3.213.308 4.907z" fill="#FF3600"/></g><defs><filter id="filter0_dd" x="-3" y="-3" width="26" height="26" filterUnits="userSpaceOnUse" color-interpolation-filters="sRGB"><feFlood flood-opacity="0" result="BackgroundImageFix"/><feColorMatrix in="SourceAlpha" values="0 0 0 0 0 0 0 0 0 0 0 0 0 0 0 0 0 0 127 0"/><feOffset/><feGaussianBlur stdDeviation="1.5"/><feColorMatrix values="0 0 0 0 0 0 0 0 0 0 0 0 0 0 0 0 0 0 1 0"/><feBlend in2="BackgroundImageFix" result="effect1_dropShadow"/><feColorMatrix in="SourceAlpha" values="0 0 0 0 0 0 0 0 0 0 0 0 0 0 0 0 0 0 127 0"/><feOffset/><feGaussianBlur stdDeviation="1.5"/><feColorMatrix values="0 0 0 0 0 0 0 0 0 0 0 0 0 0 0 0 0 0 1 0"/><feBlend in2="effect1_dropShadow" result="effect2_dropShadow"/><feBlend in="SourceGraphic" in2="effect2_dropShadow" result="shape"/></filter></defs></svg>