<svg width="20" height="20" fill="none" xmlns="http://www.w3.org/2000/svg"><g filter="url(#filter0_dd)"><path d="M9.18 4.03a.598.598 0 011.014 0l1.857 2.957c.082.13.21.225.36.262l3.386.852a.598.598 0 01.313.964l-2.238 2.68a.599.599 0 00-.138.423l.236 3.484c.03.44-.41.76-.82.595l-3.24-1.3a.599.599 0 00-.445 0l-3.24 1.3a.598.598 0 01-.82-.595l.236-3.484a.598.598 0 00-.138-.424l-2.238-2.68a.598.598 0 01.313-.963l3.386-.852a.598.598 0 00.36-.262L9.181 4.03z" fill="#FFBC09"/></g><defs><filter id="filter0_dd" x="-3" y="-3" width="26" height="26" filterUnits="userSpaceOnUse" color-interpolation-filters="sRGB"><feFlood flood-opacity="0" result="BackgroundImageFix"/><feColorMatrix in="SourceAlpha" values="0 0 0 0 0 0 0 0 0 0 0 0 0 0 0 0 0 0 127 0"/><feOffset/><feGaussianBlur stdDeviation="1.5"/><feColorMatrix values="0 0 0 0 0 0 0 0 0 0 0 0 0 0 0 0 0 0 1 0"/><feBlend in2="BackgroundImageFix" result="effect1_dropShadow"/><feColorMatrix in="SourceAlpha" values="0 0 0 0 0 0 0 0 0 0 0 0 0 0 0 0 0 0 127 0"/><feOffset/><feGaussianBlur stdDeviation="1.5"/><feColorMatrix values="0 0 0 0 0 0 0 0 0 0 0 0 0 0 0 0 0 0 1 0"/><feBlend in2="effect1_dropShadow" result="effect2_dropShadow"/><feBlend in="SourceGraphic" in2="effect2_dropShadow" result="shape"/></filter></defs></svg>