<svg width="20" height="20" fill="none" xmlns="http://www.w3.org/2000/svg"><g filter="url(#filter0_dd)" fill="#33E0FF"><path fill-rule="evenodd" clip-rule="evenodd" d="M6.958 11.196l.22-.112.544-.11.19-.23 1.794.013.158.205 1.605.618.144.156.264.865.027.277-.14.182-.55.125.02.043.178.212 2.495.401.199.137.062.08-.048.137-.225.037.121.204.013.13.07.091.011.199-.03.035-.105.325-.113.07-.025.106-.201.201-.042.093-.082.103-.056.014-.077.038-.042.077-.077.093-.048.018-.186.133-.058.014-.16.132-.409.104-.83.042-.407-.094-1.009-.594-.198-.047-1.736.001-.122.027-1.087.632-.377.077-1.22-.14-.16-.132-.07-.018-.3-.221-.054-.101-.076-.037-.05-.01-.086-.1-.043-.1-.194-.168-.026-.12-.116-.085-.115-.334-.024-.211.064-.087.034-.17.045-.09.064-.082-.206-.046-.05-.156.105-.113.443-.203 2.108-.245.078-.036.217-.276-.697-.277-.016-.017.168-.77-2.503-.643-.203-.238.1-.456.06-.08.226-.069 2.689.603.133-.032zm4.38 1.573v-.007l.148-.01.091-.109-.152-.595-.216-.26-.32-.17-1.807-.426-.202.165.007.202.187.614.132.157.575.218 1.557.221zm2.434 1.835h-.503v.006l-.59.01-.138.076.043.169 1.311.02.077-.165-.2-.116zm-.145.844l.059-.081-.078-.064-.978-.03-.214.065-.037.059.055.05.032.009 1.026.025.135-.033zm-6.798-.738l2.605.22 1.877-.197.142-.056.052-.157-.558-.46-.179-.18-.092-.039-.074.076.189.335-.055.123-3.255.005-.06-.133.186-.335-.055-.068-.101.032-.183.176-.6.458.066.18.095.02zm-1.339-.092l-1.04-.013-.21.108.069.174.254.01v-.01l1.051-.017.045-.18-.169-.072zm.3.72l-.046-.027-.196-.037-.981.044-.014.115.15.05 1.064-.032.059-.047-.036-.066z"/><path d="M15.91 9.504l-3.336.282.754-2.186.123-.355-.3.226-1.912 1.437-.194-1.046-.034-.184-.149.113-.985.748-.765-4.096-.007-.034-.023-.024-.084-.089-.097-.103-.08.116-.056.08-.015.02-.004.026-.704 4.004-1.879-1.083-.308-.178.146.325.68 1.507-1.517-.346-.3-.069.182.25.026.034.009.012.011.01 1.476 1.188.025.02.03.004.202.03.087.012.035-.08.076-.173.025-.056-.032-.051-.067-.108-.006-.01-.006-.006.24.035.064.01.042-.052.153-.19.038-.049-.019-.06-.213-.651.742.416.015.008.017.004.199.044.054.012.043-.036.199-.164.031-.026.008-.04.376-1.823.498 1.98.014.056.053.022.216.09.051.022.048-.026.726-.392.19.505.02.049.047.018.304.115.051.02.048-.028.98-.57-.22 1.049-.011.05.03.041.131.18.035.048h.059l1.577-.009-1.304.832-.058.037.005.069.025.315.005.07.063.027.952.415-.781.299-.033.012-.02.029-.054.076-.05.071.056.068.109.133.045.055.07-.016 2.609-.596.089-.02v-.193l-.083-.024-2.178-.632 3.065-1.653-.06-.216-.331.017h0-.004z" stroke="#33E0FF" stroke-width=".23"/></g><defs><filter id="filter0_dd" x="-3" y="-3" width="26" height="26" filterUnits="userSpaceOnUse" color-interpolation-filters="sRGB"><feFlood flood-opacity="0" result="BackgroundImageFix"/><feColorMatrix in="SourceAlpha" values="0 0 0 0 0 0 0 0 0 0 0 0 0 0 0 0 0 0 127 0"/><feOffset/><feGaussianBlur stdDeviation="1.5"/><feColorMatrix values="0 0 0 0 0 0 0 0 0 0 0 0 0 0 0 0 0 0 1 0"/><feBlend in2="BackgroundImageFix" result="effect1_dropShadow"/><feColorMatrix in="SourceAlpha" values="0 0 0 0 0 0 0 0 0 0 0 0 0 0 0 0 0 0 127 0"/><feOffset/><feGaussianBlur stdDeviation="1.5"/><feColorMatrix values="0 0 0 0 0 0 0 0 0 0 0 0 0 0 0 0 0 0 1 0"/><feBlend in2="effect1_dropShadow" result="effect2_dropShadow"/><feBlend in="SourceGraphic" in2="effect2_dropShadow" result="shape"/></filter></defs></svg>