<svg width="36" height="36" fill="none" xmlns="http://www.w3.org/2000/svg"><g filter="url(#filter0_dd)" fill="#FFBC09"><path d="M27.329 9.363l-.38-3.648c-.05-.473-.472-.797-.908-.697l-3.366.775c-.5.115-.746.716-.488 1.186l1.275 2.32a.76.76 0 00.497.382l2.47.552c.5.111.956-.33.9-.87z"/><path d="M17.144 5.495a.987.987 0 011.712 0l3.135 5.227c.138.23.357.397.61.463l5.718 1.506c.722.19 1.006 1.105.529 1.703l-3.781 4.736a1.09 1.09 0 00-.233.75l.399 6.157c.05.777-.693 1.343-1.384 1.052l-5.473-2.3a.968.968 0 00-.753 0l-5.472 2.3c-.69.29-1.434-.275-1.384-1.052l.399-6.158a1.09 1.09 0 00-.233-.75l-3.78-4.735c-.478-.598-.194-1.513.528-1.703l5.719-1.506c.252-.066.47-.232.61-.463l3.134-5.227z"/><path d="M17.466 31.576l-2.198-2.641c-.327-.392-.204-1.014.242-1.228l2.199-1.057a.668.668 0 01.582 0l2.2 1.057c.445.214.567.836.241 1.228l-2.199 2.642a.682.682 0 01-1.067 0zM6.074 17.632l-1.95 3.156a.819.819 0 00.32 1.162l3.273 1.634a.799.799 0 001.142-.618l.383-2.7a.822.822 0 00-.176-.634l-1.706-2.09a.788.788 0 00-1.286.09zm25.803 3.156l-1.95-3.156a.788.788 0 00-1.287-.09l-1.706 2.09a.822.822 0 00-.176.635l.383 2.7a.8.8 0 001.142.617l3.273-1.634a.819.819 0 00.32-1.162zM9.05 5.715l-.379 3.648c-.056.54.4.981.9.87l2.47-.552a.76.76 0 00.496-.381l1.276-2.321c.258-.47.011-1.071-.488-1.186l-3.366-.775c-.436-.1-.859.224-.908.697z"/></g><defs><filter id="filter0_dd" x="0" y="0" width="36" height="36" filterUnits="userSpaceOnUse" color-interpolation-filters="sRGB"><feFlood flood-opacity="0" result="BackgroundImageFix"/><feColorMatrix in="SourceAlpha" values="0 0 0 0 0 0 0 0 0 0 0 0 0 0 0 0 0 0 127 0"/><feOffset/><feGaussianBlur stdDeviation="1.5"/><feColorMatrix values="0 0 0 0 0 0 0 0 0 0 0 0 0 0 0 0 0 0 1 0"/><feBlend in2="BackgroundImageFix" result="effect1_dropShadow"/><feColorMatrix in="SourceAlpha" values="0 0 0 0 0 0 0 0 0 0 0 0 0 0 0 0 0 0 127 0"/><feOffset/><feGaussianBlur stdDeviation="1.5"/><feColorMatrix values="0 0 0 0 0 0 0 0 0 0 0 0 0 0 0 0 0 0 1 0"/><feBlend in2="effect1_dropShadow" result="effect2_dropShadow"/><feBlend in="SourceGraphic" in2="effect2_dropShadow" result="shape"/></filter></defs></svg>