<svg width="20" height="20" fill="none" xmlns="http://www.w3.org/2000/svg"><g filter="url(#filter0_dd)"><path fill-rule="evenodd" clip-rule="evenodd" d="M7.227 5.98l.273 4.645 1.875-.312-.256 3.579C6.556 12.009 5.781 9.343 5.77 6.45c.342-.2.853-.357 1.458-.47zm-.041-.693c-.752.136-1.441.335-2.01.596-.408 7.382 4.632 9.352 4.632 9.352s5.04-1.97 4.632-9.352c-.873-.4-2.028-.654-3.259-.761l.243-1.31c1.752.137 3.374.5 4.441 1.087-.022 5.294-.45 8.782-6.057 11.976C4.2 13.681 3.772 10.193 3.75 4.9c.842-.464 2.031-.787 3.356-.97l.08 1.358zm3.867.528l-.428 2.31 2.5-.312-2.65 6.094c2.58-1.883 3.36-4.556 3.371-7.457-.574-.337-1.622-.549-2.793-.635z" fill="#C181D8"/></g><defs><filter id="filter0_dd" x="-3" y="-3" width="26" height="26" filterUnits="userSpaceOnUse" color-interpolation-filters="sRGB"><feFlood flood-opacity="0" result="BackgroundImageFix"/><feColorMatrix in="SourceAlpha" values="0 0 0 0 0 0 0 0 0 0 0 0 0 0 0 0 0 0 127 0"/><feOffset/><feGaussianBlur stdDeviation="1.5"/><feColorMatrix values="0 0 0 0 0 0 0 0 0 0 0 0 0 0 0 0 0 0 1 0"/><feBlend in2="BackgroundImageFix" result="effect1_dropShadow"/><feColorMatrix in="SourceAlpha" values="0 0 0 0 0 0 0 0 0 0 0 0 0 0 0 0 0 0 127 0"/><feOffset/><feGaussianBlur stdDeviation="1.5"/><feColorMatrix values="0 0 0 0 0 0 0 0 0 0 0 0 0 0 0 0 0 0 1 0"/><feBlend in2="effect1_dropShadow" result="effect2_dropShadow"/><feBlend in="SourceGraphic" in2="effect2_dropShadow" result="shape"/></filter></defs></svg>