<svg width="20" height="20" fill="none" xmlns="http://www.w3.org/2000/svg"><g filter="url(#filter0_dd)"><path fill-rule="evenodd" clip-rule="evenodd" d="M16.65 7.408s-.598 1.988-1.37 2.762a3.687 3.687 0 01-3.92.838l-5.32 5.32a1.676 1.676 0 01-2.368 0 1.675 1.675 0 010-2.368l5.32-5.32a3.687 3.687 0 01.84-3.919c.803-.805 2.631-1.375 2.631-1.375l1.039-.164.475.474-2.132 2.131v.948l1.422 1.422h.946l2.132-2.132.473.474-.168.909zM4.502 14.552a.67.67 0 10.946.948.67.67 0 00-.946-.948zm4.973-4.974l-3.909 3.908.95.948 3.907-3.909-.948-.947z" fill="#BFE704"/></g><defs><filter id="filter0_dd" x="-3" y="-3" width="26" height="26" filterUnits="userSpaceOnUse" color-interpolation-filters="sRGB"><feFlood flood-opacity="0" result="BackgroundImageFix"/><feColorMatrix in="SourceAlpha" values="0 0 0 0 0 0 0 0 0 0 0 0 0 0 0 0 0 0 127 0"/><feOffset/><feGaussianBlur stdDeviation="1.5"/><feColorMatrix values="0 0 0 0 0 0 0 0 0 0 0 0 0 0 0 0 0 0 1 0"/><feBlend in2="BackgroundImageFix" result="effect1_dropShadow"/><feColorMatrix in="SourceAlpha" values="0 0 0 0 0 0 0 0 0 0 0 0 0 0 0 0 0 0 127 0"/><feOffset/><feGaussianBlur stdDeviation="1.5"/><feColorMatrix values="0 0 0 0 0 0 0 0 0 0 0 0 0 0 0 0 0 0 1 0"/><feBlend in2="effect1_dropShadow" result="effect2_dropShadow"/><feBlend in="SourceGraphic" in2="effect2_dropShadow" result="shape"/></filter></defs></svg>