<svg width="32" height="32" fill="none" xmlns="http://www.w3.org/2000/svg"><g filter="url(#filter0_d)" clip-path="url(#clip0)"><path fill-rule="evenodd" clip-rule="evenodd" d="M16 29.333C4.893 22.843 4.044 15.757 4 5c5.51-3.11 18.49-3.11 24 0-.044 10.758-.893 17.844-12 24.334zM6.824 7C6.016 21.999 16 26 16 26s9.984-4 9.176-19C20.45 4.777 11.55 4.777 6.824 7zM23.41 8.03h-.001L23.41 8l-.001.03zm-.562 5.946l.562-5.945c-.047.9-.035 3.35-.562 5.944zm-2.637 0l-1.752-2.972L20.21 8.03h3.198l-.56 5.944H20.21zm-5.964-3.337l-1.752-2.972.294-.499c2.089-.22 4.333-.22 6.422 0l.294.499-1.753 2.972h-3.505zm-.706.365l-1.752 2.972H9.152l-.56-5.945h3.197l1.752 2.973zM8.59 8.03l.562 5.944c-.527-2.593-.515-5.044-.562-5.944zM8.588 8l.003.03H8.59L8.588 8zm4.953 9.676l-1.515 2.57c-1.378-1.72-2.178-3.313-2.72-5.542h2.483l1.752 2.972zm4.211.365l1.678 2.845c-1.656 1.883-3.324 3.04-3.412 3.1h-.036c-.088-.06-1.756-1.217-3.412-3.1l1.677-2.845h3.505zm-3.505-.73l-1.752-2.972 1.752-2.971h3.505l1.753 2.972-1.753 2.971h-3.505zm5.964-2.607h2.483c-.543 2.23-1.343 3.821-2.72 5.542l-1.515-2.57 1.752-2.972z" fill="#22DFC7"/></g><defs><clipPath id="clip0"><path fill="#fff" d="M0 0h32v32H0z"/></clipPath><filter id="filter0_d" x="1" y="-.333" width="30" height="32.667" filterUnits="userSpaceOnUse" color-interpolation-filters="sRGB"><feFlood flood-opacity="0" result="BackgroundImageFix"/><feColorMatrix in="SourceAlpha" values="0 0 0 0 0 0 0 0 0 0 0 0 0 0 0 0 0 0 127 0"/><feOffset/><feGaussianBlur stdDeviation="1.5"/><feColorMatrix values="0 0 0 0 0 0 0 0 0 0 0 0 0 0 0 0 0 0 1 0"/><feBlend in2="BackgroundImageFix" result="effect1_dropShadow"/><feBlend in="SourceGraphic" in2="effect1_dropShadow" result="shape"/></filter></defs></svg>