<svg width="32" height="32" viewBox="0 0 24 24" fill="none" xmlns="http://www.w3.org/2000/svg"><path d="M3.25 11.5c0-4.166 2.916-6.666 2.916-6.666s-4.167 2.083-4.167 6.667c0 4.583 4.167 6.666 4.167 6.666s-2.917-2.5-2.917-6.666zm17.5 0c0-4.166-2.916-6.666-2.916-6.666s4.167 2.083 4.167 6.667c0 4.583-4.167 6.666-4.167 6.666s2.917-2.5 2.917-6.666z" fill="#DF222B"/><path fill-rule="evenodd" clip-rule="evenodd" d="M12 19a7.5 7.5 0 100-15 7.5 7.5 0 000 15zM10.417 8.583a.5.5 0 11-1 0 .5.5 0 011 0zm1.583 0a2.083 2.083 0 11-4.167 0 2.083 2.083 0 014.167 0zm2.083 6.334a.5.5 0 100-1 .5.5 0 000 1zm0 1.583a2.083 2.083 0 100-4.167 2.083 2.083 0 000 4.167zm-3.95-1.192l5-6.667-1.267-.95-5 6.667 1.267.95z" fill="#DF222B"/></svg>