<svg width="20" height="20" fill="none" xmlns="http://www.w3.org/2000/svg"><g filter="url(#filter0_dd)"><path fill-rule="evenodd" clip-rule="evenodd" d="M13.839 3.75l-.241 1.709 1.277.887-1.56.24-.287.837c1.106.032 1.928.37 2.21 1.01.513 1.159-.916 2.915-3.274 4.158l-1.404-.726c2.25-.966 3.729-2.522 3.306-3.48-.137-.309-.505-.458-.998-.494l-.08.234-.107-.242c-1.038-.019-2.525.388-3.636.859a7.583 7.583 0 00-1.778 1.079l-.634-.183a11.44 11.44 0 012.334-1.325c1.245-.533 2.475-.825 3.517-.882l-.353-.81-1.631.138 1.099-1.196-.532-1.49 1.387.703 1.385-1.026zM10.386 9l-.435 3.076 2.299 1.597-2.808.433-.95 2.769-1.18-2.706-2.937.248 1.978-2.154-.956-2.681 2.496 1.265L10.386 9zm-3.57-2.485l-.125.87.662.451-.809.123-.273.783-.34-.765-.846.07.57-.61-.276-.757.719.357.718-.522zM5.64 12.27l-.76.818a1.2 1.2 0 01-.1-.183c-.238-.539-.057-1.207.443-1.892l.417 1.257z" fill="#FF0"/></g><defs><filter id="filter0_dd" x="-3" y="-3" width="26" height="26" filterUnits="userSpaceOnUse" color-interpolation-filters="sRGB"><feFlood flood-opacity="0" result="BackgroundImageFix"/><feColorMatrix in="SourceAlpha" values="0 0 0 0 0 0 0 0 0 0 0 0 0 0 0 0 0 0 127 0"/><feOffset/><feGaussianBlur stdDeviation="1.5"/><feColorMatrix values="0 0 0 0 0 0 0 0 0 0 0 0 0 0 0 0 0 0 1 0"/><feBlend in2="BackgroundImageFix" result="effect1_dropShadow"/><feColorMatrix in="SourceAlpha" values="0 0 0 0 0 0 0 0 0 0 0 0 0 0 0 0 0 0 127 0"/><feOffset/><feGaussianBlur stdDeviation="1.5"/><feColorMatrix values="0 0 0 0 0 0 0 0 0 0 0 0 0 0 0 0 0 0 1 0"/><feBlend in2="effect1_dropShadow" result="effect2_dropShadow"/><feBlend in="SourceGraphic" in2="effect2_dropShadow" result="shape"/></filter></defs></svg>