<svg width="20" height="20" fill="none" xmlns="http://www.w3.org/2000/svg"><g filter="url(#filter0_dd)" fill="#DF222B"><path fill-rule="evenodd" clip-rule="evenodd" d="M14.66 9.375a4.66 4.66 0 11-9.32 0 4.66 4.66 0 019.32 0zm1.59 0a6.25 6.25 0 11-12.5 0 6.25 6.25 0 0112.5 0zM8.623 7.681a.34.34 0 01-.338.344.341.341 0 01-.338-.344.34.34 0 01.338-.343.34.34 0 01.338.343zm1.072 0a1.42 1.42 0 01-1.41 1.432 1.42 1.42 0 01-1.41-1.432c0-.79.631-1.431 1.41-1.431.779 0 1.41.64 1.41 1.431zm2.359 3.387c0 .19-.152.344-.339.344a.341.341 0 01-.338-.344.34.34 0 01.338-.343c.187 0 .339.154.339.343zm1.071 0a1.42 1.42 0 01-1.41 1.432 1.42 1.42 0 01-1.41-1.432c0-.79.632-1.431 1.41-1.431.779 0 1.41.64 1.41 1.431zm-1-3.714l-3.384 4.58-.857-.652 3.384-4.58.857.652z"/><path d="M12.63 14.308l-2.302 2.632-2.303-2.632h4.605z"/></g><defs><filter id="filter0_dd" x="-3" y="-3" width="26" height="26" filterUnits="userSpaceOnUse" color-interpolation-filters="sRGB"><feFlood flood-opacity="0" result="BackgroundImageFix"/><feColorMatrix in="SourceAlpha" values="0 0 0 0 0 0 0 0 0 0 0 0 0 0 0 0 0 0 127 0"/><feOffset/><feGaussianBlur stdDeviation="1.5"/><feColorMatrix values="0 0 0 0 0 0 0 0 0 0 0 0 0 0 0 0 0 0 1 0"/><feBlend in2="BackgroundImageFix" result="effect1_dropShadow"/><feColorMatrix in="SourceAlpha" values="0 0 0 0 0 0 0 0 0 0 0 0 0 0 0 0 0 0 127 0"/><feOffset/><feGaussianBlur stdDeviation="1.5"/><feColorMatrix values="0 0 0 0 0 0 0 0 0 0 0 0 0 0 0 0 0 0 1 0"/><feBlend in2="effect1_dropShadow" result="effect2_dropShadow"/><feBlend in="SourceGraphic" in2="effect2_dropShadow" result="shape"/></filter></defs></svg>