<svg width="20" height="20" fill="none" xmlns="http://www.w3.org/2000/svg"><g filter="url(#filter0_dd)" fill="#EADC99"><path d="M6.197 8.08l-1.822.065v-3.5L9.1 3.75v1.727s-1.85.055-2.676.448a6.996 6.996 0 00-.218.11l-.01.21c-.034.873 0 1.836 0 1.836zm.683 2.956l-1.822.064s-.283-.583-.387-.976c-.11-.41-.144-1.07-.144-1.07h1.821s.05.62.153 1.006c.105.392.379.976.379.976zm-1.67.786h1.822s.438.716.787 1.135c.362.435 1.034 1.04 1.034 1.04v1.919s-1.666-1.052-2.429-1.983c-.61-.745-1.214-2.11-1.214-2.11zm4.175 2.622V16.3l.84.576.842-.576v-1.854l-.841.455-.841-.456zm6.54-6.299l-1.822-.064V6.244l-.003-.208s-.136-.07-.224-.111c-.831-.386-2.809-.448-2.809-.448V3.75l4.858.895v3.5zm-2.353 2.891l1.822.064s.22-.55.32-.912c.12-.437.211-1.135.211-1.135h-1.822s-.049.62-.152 1.007c-.104.392-.379.976-.379.976zm1.67.786H13.42s-.434.716-.782 1.135c-.363.436-1.04 1.04-1.04 1.04v1.919s1.67-1.063 2.43-1.983c.617-.749 1.214-2.11 1.214-2.11zM7.914 7.637s-.051 1.711.402 2.856l3.21-3.141a6.519 6.519 0 00-1.356-.137c-1.442 0-2.256.422-2.256.422zM12 10.692c.282-.526.373-1.683.403-2.413l-3.37 3.297c.335.345.717.645 1.137.889 0 0 1.256-.698 1.83-1.773z"/><path fill-rule="evenodd" clip-rule="evenodd" d="M10.164 14.25s2.115-1.2 3.06-3.062c.698-1.377.603-4.15.59-4.554l-.002-.049s-1.206-.735-3.648-.735c-2.453 0-3.649.735-3.649.735s-.281 2.675.644 4.62c.898 1.886 3.005 3.045 3.005 3.045zm.006-7.56c1.78 0 2.784.525 2.784.525l.002.023c.018.246.177 2.387-.54 3.652a5.71 5.71 0 01-2.246 2.205s-1.535-.84-2.19-2.208c-.675-1.41-.605-3.672-.605-3.672s1.008-.525 2.795-.525z"/></g><defs><filter id="filter0_dd" x="-3" y="-3" width="26" height="26" filterUnits="userSpaceOnUse" color-interpolation-filters="sRGB"><feFlood flood-opacity="0" result="BackgroundImageFix"/><feColorMatrix in="SourceAlpha" values="0 0 0 0 0 0 0 0 0 0 0 0 0 0 0 0 0 0 127 0"/><feOffset/><feGaussianBlur stdDeviation="1.5"/><feColorMatrix values="0 0 0 0 0 0 0 0 0 0 0 0 0 0 0 0 0 0 1 0"/><feBlend in2="BackgroundImageFix" result="effect1_dropShadow"/><feColorMatrix in="SourceAlpha" values="0 0 0 0 0 0 0 0 0 0 0 0 0 0 0 0 0 0 127 0"/><feOffset/><feGaussianBlur stdDeviation="1.5"/><feColorMatrix values="0 0 0 0 0 0 0 0 0 0 0 0 0 0 0 0 0 0 1 0"/><feBlend in2="effect1_dropShadow" result="effect2_dropShadow"/><feBlend in="SourceGraphic" in2="effect2_dropShadow" result="shape"/></filter></defs></svg>