<svg width="20" height="20" fill="none" xmlns="http://www.w3.org/2000/svg"><g filter="url(#filter0_dd)" fill="#FF3131"><path d="M6.485 8.425l-.44 5.022 5.022-.264-1.939-.88 1.41-.706H9.393l2.643-4.053-4.053 2.643V8.954l-.793 1.41-.705-1.939zm-.793 2.291l-.617-.705.617 2.38v-1.675zm3.172 3.172L7.19 13.8l2.29.705-.616-.617z"/><path fill-rule="evenodd" clip-rule="evenodd" d="M3.75 15.993h10.83L12.445 14.1l4.431-.33-4.56-2.345 2.25-1.75h-2.361l3.431-6.125-5.887 3.475V5.242l-1.81 1.81-1.833-3.927-.417 4.166-1.938-2.29v10.992zm6.828-2.52l1.982 1.754H4.516V7.092L6.27 9.165l.319-3.19 1.116 2.393 1.276-1.276v1.276l4.597-2.714-2.682 4.787h1.435l-1.435 1.117 3.21 1.651-3.53.263z"/></g><defs><filter id="filter0_dd" x="-3" y="-3" width="26" height="26" filterUnits="userSpaceOnUse" color-interpolation-filters="sRGB"><feFlood flood-opacity="0" result="BackgroundImageFix"/><feColorMatrix in="SourceAlpha" values="0 0 0 0 0 0 0 0 0 0 0 0 0 0 0 0 0 0 127 0"/><feOffset/><feGaussianBlur stdDeviation="1.5"/><feColorMatrix values="0 0 0 0 0 0 0 0 0 0 0 0 0 0 0 0 0 0 1 0"/><feBlend in2="BackgroundImageFix" result="effect1_dropShadow"/><feColorMatrix in="SourceAlpha" values="0 0 0 0 0 0 0 0 0 0 0 0 0 0 0 0 0 0 127 0"/><feOffset/><feGaussianBlur stdDeviation="1.5"/><feColorMatrix values="0 0 0 0 0 0 0 0 0 0 0 0 0 0 0 0 0 0 1 0"/><feBlend in2="effect1_dropShadow" result="effect2_dropShadow"/><feBlend in="SourceGraphic" in2="effect2_dropShadow" result="shape"/></filter></defs></svg>