<svg width="20" height="20" fill="none" xmlns="http://www.w3.org/2000/svg"><g filter="url(#filter0_dd)"><path fill-rule="evenodd" clip-rule="evenodd" d="M5 6.71l4.844-2.96 4.845 2.96v1.544l-.393.128-1.44-1.029-3.012-1.82-3.011 1.82-1.44 1.03L5 8.252V6.71zm4.844-.13L5 9.54v1.544l.393.129 1.44-1.03v4.032l.786.644.392-.129V9.54l1.048-.772v7.978l.13.129h1.31l.13-.129V8.768l1.048.772v5.19l.262.129.917-.644v-4.032l1.44 1.03.393-.129V9.54L9.844 6.58z" fill="#FF0"/></g><defs><filter id="filter0_dd" x="-3" y="-3" width="26" height="26" filterUnits="userSpaceOnUse" color-interpolation-filters="sRGB"><feFlood flood-opacity="0" result="BackgroundImageFix"/><feColorMatrix in="SourceAlpha" values="0 0 0 0 0 0 0 0 0 0 0 0 0 0 0 0 0 0 127 0"/><feOffset/><feGaussianBlur stdDeviation="1.5"/><feColorMatrix values="0 0 0 0 0 0 0 0 0 0 0 0 0 0 0 0 0 0 1 0"/><feBlend in2="BackgroundImageFix" result="effect1_dropShadow"/><feColorMatrix in="SourceAlpha" values="0 0 0 0 0 0 0 0 0 0 0 0 0 0 0 0 0 0 127 0"/><feOffset/><feGaussianBlur stdDeviation="1.5"/><feColorMatrix values="0 0 0 0 0 0 0 0 0 0 0 0 0 0 0 0 0 0 1 0"/><feBlend in2="effect1_dropShadow" result="effect2_dropShadow"/><feBlend in="SourceGraphic" in2="effect2_dropShadow" result="shape"/></filter></defs></svg>