<svg width="20" height="18" fill="none" xmlns="http://www.w3.org/2000/svg"><path fill-rule="evenodd" clip-rule="evenodd" d="M4.37 11.5c0-3.176 2.52-5.75 5.629-5.75 3.109 0 5.629 2.574 5.629 5.75s-2.52 5.75-5.63 5.75c-3.108 0-5.628-2.574-5.628-5.75zm2.413 0c0-1.815 1.44-3.286 3.217-3.286 1.776 0 3.216 1.471 3.216 3.286 0 1.814-1.44 3.285-3.216 3.285-1.777 0-3.217-1.47-3.217-3.285zm3.215-7.393c-.915 0-1.79.173-2.596.49L10 0l2.6 4.599a7.086 7.086 0 00-2.602-.492zM.25 17.25l2.599-4.597a7.421 7.421 0 002.6 4.597H.25zm19.5 0h-5.203a7.421 7.421 0 002.602-4.602l2.601 4.602z" fill="#FF7C7C"/></svg>